<svg width="44" height="44" viewBox="0 0 44 44" fill="none" xmlns="http://www.w3.org/2000/svg">
<rect width="44" height="44" fill="#E28AC4"/>
<rect x="7" y="7" width="30" height="30" rx="5" fill="#FF0BAB"/>
<path d="M3.2959 33V30.5977L5.5957 30.1582V14.5283L3.2959 14.0889V11.6719H5.5957H12.7148C15.166 11.6719 17.0801 12.1602 18.457 13.1367C19.834 14.1035 20.5225 15.5586 20.5225 17.502C20.5225 18.4785 20.249 19.3525 19.7021 20.124C19.165 20.8955 18.4033 21.4717 17.417 21.8525C18.2666 22.0381 18.9795 22.3701 19.5557 22.8486C20.1318 23.3271 20.5664 23.9082 20.8594 24.5918C21.1621 25.2754 21.3135 26.0225 21.3135 26.833C21.3135 28.8545 20.6445 30.3877 19.3066 31.4326C17.9785 32.4775 16.1133 33 13.7109 33H3.2959ZM9.58008 29.9385H13.7109C14.8828 29.9385 15.7764 29.6748 16.3916 29.1475C17.0166 28.6201 17.3291 27.8486 17.3291 26.833C17.3291 26.1104 17.2119 25.5 16.9775 25.002C16.7529 24.4941 16.3965 24.1084 15.9082 23.8447C15.4297 23.5811 14.8145 23.4492 14.0625 23.4492H9.58008V29.9385ZM9.58008 20.6367H12.9932C14.1162 20.6367 14.9854 20.3877 15.6006 19.8896C16.2256 19.3916 16.5381 18.6787 16.5381 17.751C16.5381 16.7256 16.2158 15.9687 15.5713 15.4805C14.9268 14.9922 13.9746 14.748 12.7148 14.748H9.58008V20.6367ZM22.9248 33V30.5977L25.2246 30.1582V14.5283L22.9248 14.0889V11.6719H32.915C34.5264 11.6719 35.9082 11.9209 37.0605 12.4189C38.2227 12.917 39.1064 13.6348 39.7119 14.5723C40.3271 15.5098 40.6348 16.6328 40.6348 17.9414C40.6348 19.1914 40.332 20.2949 39.7266 21.252C39.1211 22.209 38.2715 22.9609 37.1777 23.5078C36.0938 24.0449 34.834 24.3184 33.3984 24.3281L29.209 24.3428V30.1582L31.5088 30.5977V33H22.9248ZM36.7236 33L32.8857 23.4785L36.5479 22.7314L39.8291 30.1875L41.5723 30.5684V33H36.7236ZM29.209 21.2666H32.7832C34.1016 21.2666 35.0781 20.998 35.7129 20.4609C36.3477 19.9141 36.665 19.123 36.665 18.0879C36.665 17.0723 36.3525 16.2617 35.7275 15.6562C35.1025 15.0508 34.165 14.748 32.915 14.748H29.209V21.2666Z" fill="black"/>
</svg>
