<?xml version="1.0" encoding="utf-8"?><svg viewBox="0 0 298 167" xmlns="http://www.w3.org/2000/svg" xmlns:xlink="http://www.w3.org/1999/xlink"><style>:root>svg{display:none}:root>svg:target{display:block}</style><svg fill="none" viewBox="0 0 31 66" id="FB" xmlns="http://www.w3.org/2000/svg"><path d="M20.256 19.745v-5.263c0-2.562 1.71-3.166 2.91-3.166h7.392V.046L20.388 0C9.095 0 6.524 8.414 6.524 13.8v5.945H0v13.166h6.587V65.83h13.166V32.91h9.776l1.2-13.166H20.255z" fill="#fff"/></svg><svg fill="none" viewBox="0 0 298 108" id="LogoBR" xmlns="http://www.w3.org/2000/svg"><g clip-path="url(#ba)" fill="#fff"><path d="M127.535 16.378c3.289 0 5.842.652 7.66 1.912 1.818 1.26 2.77 3.171 2.77 5.734 0 1.303-.346 2.433-1.039 3.476-.692.999-1.688 1.78-2.986 2.302 1.688.348 2.9 1.13 3.765 2.303.822 1.173 1.255 2.52 1.255 4.083 0 2.694-.865 4.692-2.64 6.082-1.774 1.39-4.241 2.042-7.487 2.042h-13.675v-3.345l2.943-.565v-20.07l-2.943-.565v-3.389h12.377zm-3.808 11.686h4.025c1.471 0 2.639-.304 3.418-.912.779-.608 1.212-1.52 1.212-2.693 0-1.304-.389-2.26-1.212-2.868-.822-.608-2.034-.912-3.635-.912h-3.808v7.385zm0 3.867v8.037h5.15c1.471 0 2.596-.304 3.375-.956.779-.652 1.169-1.607 1.169-2.867 0-1.347-.346-2.433-.996-3.128-.649-.739-1.687-1.086-3.115-1.086h-5.583zm28.043-12.164l-2.294.347 4.328 9.167h.13l4.327-9.167-2.25-.347v-3.389h10.516v3.389l-2.38.39-7.573 14.337v5.908l2.986.565v3.345h-11.512v-3.345l2.986-.565V34.19l-7.443-14.032-2.337-.391v-3.389h10.516v3.389zm41.631-3.389v7.429h-4.284l-.216-3.128h-5.107v19.68l2.986.565v3.345h-11.555v-3.345l2.986-.565v-19.68h-5.106l-.216 3.128h-4.242v-7.429h24.754zm20.34 15.64h-9.434v7.993h8.958l.26-3.345h4.241v7.646h-21.984v-3.345l2.943-.565v-20.07l-2.943-.565v-3.389h21.941v7.646h-4.285l-.259-3.345h-8.915v7.038h9.434l.043 4.3zm28.779-6.734h-4.198l-.736-3.823c-.476-.304-1.211-.565-2.12-.825a12.705 12.705 0 00-2.943-.348c-1.514 0-2.726.304-3.548.956-.823.651-1.255 1.477-1.255 2.52 0 .955.432 1.737 1.298 2.345.865.609 2.38 1.26 4.501 1.912 3.072.869 5.409 1.998 6.967 3.389 1.601 1.39 2.38 3.258 2.38 5.56 0 2.39-.952 4.258-2.813 5.648-1.904 1.39-4.371 2.085-7.443 2.085-2.207 0-4.198-.347-5.972-1.043a12.826 12.826 0 01-4.458-2.91v-5.865h4.328l.606 3.953c.562.478 1.341.826 2.293 1.13.952.304 2.034.434 3.203.434 1.514 0 2.683-.304 3.505-.956.779-.608 1.212-1.477 1.212-2.52 0-1.085-.39-1.954-1.125-2.606-.779-.651-2.078-1.26-3.982-1.824-3.289-.956-5.799-2.086-7.487-3.432-1.687-1.304-2.553-3.128-2.553-5.387 0-2.26.952-4.128 2.856-5.561 1.905-1.434 4.328-2.172 7.184-2.216 2.121 0 4.068.348 5.843 1 1.774.651 3.245 1.52 4.414 2.606v5.778h.043zM114.941 77.763c0-1.52.433-2.823 1.255-3.91.823-1.085 2.078-2.215 3.765-3.431-.865-1.173-1.514-2.26-1.947-3.215a7.135 7.135 0 01-.649-2.954c0-2.216.692-3.997 2.077-5.3 1.385-1.304 3.203-1.999 5.539-1.999 2.034 0 3.679.608 4.934 1.868 1.255 1.26 1.904 2.78 1.904 4.562 0 1.26-.303 2.39-.952 3.432-.606 1.042-1.471 1.955-2.553 2.737l-1.775 1.26 5.28 6.168c.476-.781.822-1.607 1.082-2.476.26-.912.39-1.824.39-2.824h4.154c0 1.782-.216 3.389-.649 4.866-.433 1.477-1.082 2.78-1.991 3.953l3.982 4.692-.044.087h-6.188l-1.472-1.694a13.603 13.603 0 01-3.332 1.564c-1.125.347-2.38.521-3.678.521-2.77 0-4.977-.738-6.622-2.216-1.687-1.39-2.51-3.301-2.51-5.69zm9.391 3.65c.693 0 1.342-.087 2.034-.26a7.622 7.622 0 001.948-.783l-5.713-6.69-.346.26c-.649.609-1.082 1.217-1.341 1.782-.217.564-.347 1.173-.347 1.737 0 1.13.347 2.086 1.039 2.824.692.739 1.601 1.13 2.726 1.13zm-1.947-17.204c0 .565.13 1.13.389 1.694.26.565.693 1.217 1.212 1.912l1.645-1.086c.692-.478 1.211-.912 1.428-1.434.259-.478.389-.999.389-1.607a2.3 2.3 0 00-.692-1.694c-.476-.478-1.082-.739-1.818-.739-.822 0-1.471.26-1.904.825-.433.609-.649 1.304-.649 2.13zm40.463-6.82c3.159 0 5.626.738 7.444 2.172 1.774 1.433 2.683 3.475 2.683 5.995 0 1.39-.39 2.606-1.125 3.65-.736 1.042-1.861 1.867-3.289 2.519 1.644.478 2.813 1.303 3.548 2.433.736 1.13 1.082 2.52 1.082 4.214v1.433c0 .608.13 1.086.347 1.434.259.347.649.521 1.211.608l.693.087v3.389h-2.9c-1.817 0-3.116-.478-3.851-1.477-.736-1-1.126-2.26-1.126-3.824v-1.607c0-1.347-.346-2.433-1.081-3.171-.736-.782-1.732-1.173-3.03-1.217h-4.544v7.342l2.986.565v3.345h-11.511v-3.345l2.943-.565V61.342l-2.943-.565V57.39h12.463zm-3.981 12.294h3.851c1.558 0 2.727-.348 3.506-1 .779-.65 1.168-1.607 1.168-2.866 0-1.26-.389-2.26-1.168-2.998-.779-.739-1.904-1.13-3.419-1.13h-3.938v7.994zm18.955-8.906V57.39h11.511v3.388l-2.986.565V81.37l2.986.565v3.345h-11.511v-3.345l2.986-.565V61.342l-2.986-.565zm37.261 21.418c-.909.912-2.207 1.694-3.939 2.433-1.731.738-3.938 1.086-6.578 1.086-3.765 0-6.794-1.26-9.174-3.78-2.337-2.52-3.549-5.821-3.549-9.862v-.955c0-4.17 1.169-7.56 3.506-10.21 2.337-2.606 5.366-3.91 9.088-3.91 2.163 0 4.154.348 5.972 1.043 1.817.695 3.289 1.651 4.5 2.824v5.604h-4.111l-.779-3.736c-.519-.434-1.168-.782-2.034-1.042-.822-.261-1.774-.392-2.856-.392-2.423 0-4.328.913-5.669 2.694-1.342 1.781-2.034 4.17-2.034 7.081v1c0 2.823.649 5.082 1.991 6.777 1.341 1.694 3.245 2.52 5.712 2.52 1.125 0 2.034-.088 2.726-.305a6.81 6.81 0 001.645-.651v-4.736l-3.981-.304v-3.91h9.564v10.73zm3.375-21.418V57.39h11.511v3.388l-2.986.565v8.037h11.382v-8.037l-2.986-.565V57.39h11.511v3.388l-2.986.565V81.37l2.986.565v3.345h-11.511v-3.345l2.986-.565v-7.69h-11.338v7.69l2.986.565v3.345h-11.555v-3.345l2.943-.565V61.342l-2.943-.565zm55.653-3.388v7.428h-4.284l-.216-3.127h-5.107v19.68l2.986.564v3.345h-11.555v-3.345l2.986-.565V61.69h-5.106l-.217 3.128h-4.241V57.39h24.754zm23.543 8.905h-4.198l-.736-3.823c-.476-.304-1.211-.564-2.12-.825a12.71 12.71 0 00-2.943-.348c-1.515 0-2.726.305-3.549.956-.822.652-1.255 1.477-1.255 2.52 0 .956.433 1.738 1.299 2.346.865.608 2.38 1.26 4.5 1.911 3.073.87 5.41 1.999 6.968 3.389 1.601 1.39 2.38 3.258 2.38 5.56 0 2.39-.952 4.258-2.813 5.648-1.904 1.39-4.371 2.086-7.443 2.086-2.208 0-4.198-.348-5.973-1.043a12.83 12.83 0 01-4.457-2.91v-5.822h4.328l.605 3.953c.563.478 1.342.826 2.294 1.13.952.304 2.034.434 3.203.434 1.514 0 2.683-.304 3.505-.956.779-.608 1.212-1.477 1.212-2.52 0-1.085-.39-1.954-1.126-2.606-.779-.652-2.077-1.26-3.981-1.825-3.289-.955-5.799-2.085-7.487-3.431-1.688-1.347-2.553-3.128-2.553-5.387 0-2.26.952-4.128 2.856-5.561 1.904-1.434 4.328-2.172 7.184-2.216 2.121 0 4.068.348 5.842 1 1.775.651 3.246 1.52 4.415 2.606v5.734h.043zM23.542 15.553H20.47v3.084h3.072v-3.084zm-3.765 0h-3.072v3.084h3.072v-3.084zm11.339 3.867h-3.073v3.084h3.073v-3.085zm-3.808 0h-3.073v3.084h3.073v-3.085zm-3.766 0H20.47v3.084h3.072v-3.085zm-3.765 0h-3.072v3.084h3.072v-3.085zm-5.063 0H11.64v3.084h3.073v-3.085zm-11.641 0H0v3.084h3.073v-3.085zm28.043 7.775h-3.073v3.085h3.073v-3.085zm-3.808 0h-3.073v3.085h3.073v-3.085zm-3.766 0H20.47v3.085h3.072v-3.085zm-3.765 0h-3.072v3.085h3.072v-3.085zm11.339 11.687h-3.073v3.084h3.073v-3.084zm-3.808 0h-3.073v3.084h3.073v-3.084zm3.808 3.866h-3.073v3.085h3.073v-3.085zm-7.574 0H20.47v3.085h3.072v-3.085zm-3.765 0h-3.072v3.085h3.072v-3.085zm11.339 3.91h-3.073v3.085h3.073v-3.085zm-3.808 0h-3.073v3.085h3.073v-3.085zm-3.766 0H20.47v3.085h3.072v-3.085zm3.766 7.733h-3.073v3.084h3.073v-3.084zm-3.766 0H20.47v3.084h3.072v-3.084zm7.574 3.909h-3.073v3.085h3.073v-3.084zm-3.808 0h-3.073v3.085h3.073v-3.084zm-7.531 0h-3.072v3.085h3.072v-3.084zm3.765 3.867H20.47v3.085h3.072v-3.085zm-12.68 0H7.79v3.085h3.072v-3.085zm20.254 7.777h-3.073v3.084h3.073v-3.084zm-3.808 0h-3.073v3.084h3.073v-3.084zm-3.766 0H20.47v3.084h3.072v-3.084zm-3.765 0h-3.072v3.084h3.072v-3.084zm11.339 3.91h-3.073v3.084h3.073v-3.084zm0 7.733h-3.073v3.084h3.073v-3.085zm-3.808 0h-3.073v3.084h3.073v-3.085zm-3.766 0H20.47v3.084h3.072v-3.085zm-3.765 0h-3.072v3.084h3.072v-3.085zm7.531 3.909h-3.073v3.085h3.073v-3.085zm-2.77 7.777h-3.073v3.084h3.073v-3.084zm3.765 3.867H25.23v3.084h3.073v-3.085zm-8.136 0h-3.073v3.084h3.073v-3.085zM34.88 42.748h-3.072v3.085h3.073v-3.085zm0-3.866h-3.072v3.084h3.073v-3.084zm0 27.195h-3.072v3.085h3.073v-3.085zm0-19.419h-3.072v3.085h3.073v-3.085zm0 15.509h-3.072v3.085h3.073v-3.085zm0-3.867h-3.072v3.085h3.073v-3.084zm0-3.909h-3.072v3.084h3.073v-3.084zm0-3.866h-3.072v3.084h3.073v-3.084zm3.809 23.329h-3.073v3.084h3.073v-3.084zm0-3.91h-3.073v3.084h3.073v-3.084zM34.88 31.105h-3.072v3.085h3.073v-3.085zm3.809 34.972h-3.073v3.085h3.073v-3.085zM34.88 27.195h-3.072v3.085h3.073v-3.085zm3.809 34.972h-3.073v3.085h3.073v-3.085zM34.88 15.553h-3.072v3.084h3.073v-3.084zm0 3.867h-3.072v3.084h3.073v-3.085zm0-4.693v-1.694l-2.682 1.043c-.13.043-.26.13-.39.217v.434h3.073zm7.574-4.605l-1.948.739h1.948v-.739zm-3.809 4.605v-3.04h-.216l-2.813 1.085v1.955h3.03zm11.339 78.546h-3.072v.434c.995.913 1.99 1.781 3.072 2.607v-3.041zM46.22 77.72h-3.073v3.085h3.072V77.72zm11.337 19.42h-3.072v2.606c.216.174.433.304.649.478h2.423v-3.085zm4.891 7.776c.909.521 1.774 1.042 2.683 1.52v-1.52h-2.683zM51.023 97.14c.908.694 1.817 1.433 2.77 2.084V97.14h-2.77zM38.689 42.748h-3.073v3.085h3.073v-3.085zm3.765 0h-3.073v3.085h3.073v-3.085zm0 3.91h-3.073v3.085h3.073v-3.085zm0-7.776h-3.073v3.084h3.073v-3.084zm0 19.418h-3.073v3.085h3.073v-3.084zm0 3.867h-3.073v3.085h3.073v-3.085zm0-7.776h-3.073v3.084h3.073v-3.084zm0-3.866h-3.073v3.084h3.073v-3.084zm0-15.553h-3.073v3.084h3.073v-3.084zm0-23.286h-3.073v3.085h3.073v-3.085zm3.766 73.81h-3.073v3.085h3.072v-3.085zm0-3.909h-3.073v3.084h3.072v-3.085zm-3.766-54.392h-3.073v3.085h3.073v-3.085zm0 3.91h-3.073v3.085h3.073v-3.085zm0-15.552h-3.073v3.084h3.073v-3.084zm0 3.867h-3.073v3.084h3.073v-3.085zm-3.765 15.552h-3.073v3.084h3.073v-3.084zm0 3.91h-3.073v3.084h3.073v-3.084zm0-7.777h-3.073v3.085h3.073v-3.085zM46.22 10.86V8.646l-3.073 1.173v1.043h3.072zM38.689 58.3h-3.073v3.085h3.073v-3.084zm0-3.909h-3.073v3.084h3.073v-3.084zm0-3.866h-3.073v3.084h3.073v-3.084zm0-3.867h-3.073v3.085h3.073v-3.085zm3.765 27.196h-3.073v3.084h3.073v-3.084zm0 3.866h-3.073v3.085h3.073V77.72zm0-11.643h-3.073v3.085h3.073v-3.085zm0 3.867h-3.073v3.084h3.073v-3.084zm-3.765-42.749h-3.073v3.085h3.073v-3.085zm0-7.775h-3.073v3.084h3.073v-3.085zm0-3.867h-3.073v3.084h3.073v-3.084zm3.765 66.034h-3.073v3.084h3.073v-3.085zm18.869 19.462H58.25v1.303c.952.609 1.86 1.217 2.813 1.782h.216v-3.085h.044zm-22.634-7.776h-3.073v3.084h3.073v-3.084zm0-3.91h-3.073v3.084h3.073v-3.084zm18.868 11.686h-3.029v3.041h3.03v-3.041zM46.22 93.273h-3.073v3.084h3.072v-3.084zm-3.766-3.91h-3.073v3.084h3.073v-3.084zm7.53-78.503V7.777h-1.601l-1.428.565v2.52h3.029zM31.808 69.944v3.084h3.073v-3.084h-3.073zM57.557 6.95V4.215l-3.072 1.173v1.564h3.072zm-3.765 0V5.692L50.72 6.864v.087h3.072zm7.53 0V3.91h-3.029v3.04h3.03zm.001-4.213l-.866.347h.866v-.347zm3.807.347V1.26l-3.072 1.216v.608h3.073zm-32.153 70.77h-1.169v3.04h3.073v-3.04h-1.904zm1.601 3.866h-2.77v3.085h3.073V77.72h-.303zm22.979-42.748h-3.072v3.084h3.072v-3.084zm3.809 58.301h-3.073v3.084h3.073v-3.084zm0-19.419h-3.073v3.084h3.073v-3.084zm0-3.91h-3.073v3.084h3.073v-3.084zm0 19.419h-3.073v3.084h3.073v-3.084zm0-54.391h-3.073v3.084h3.073v-3.084zm0 46.615h-3.073v3.084h3.073v-3.085zm0 3.909h-3.073v3.085h3.073v-3.085zm0-7.776h-3.073v3.085h3.073V77.72zm0-34.972h-3.073v3.085h3.073v-3.085zm0 19.419h-3.073v3.085h3.073v-3.085zm0-23.285h-3.073v3.084h3.073v-3.084zm0 7.776h-3.073v3.085h3.073v-3.085zm0 11.642h-3.073v3.085h3.073v-3.084zm0-3.909h-3.073v3.084h3.073v-3.084zm0-3.866h-3.073v3.084h3.073v-3.084zm0 15.552h-3.073v3.085h3.073v-3.085zm-3.809-15.552h-3.072v3.084h3.072v-3.084zm0-3.867h-3.072v3.085h3.072v-3.085zm0 7.733h-3.072v3.084h3.072v-3.084zm0 3.909h-3.072v3.085h3.072v-3.084zm0-19.418h-3.072v3.084h3.072v-3.084zm0 27.195h-3.072v3.085h3.072v-3.085zm0-3.91h-3.072v3.085h3.072v-3.085zm0-50.481h-3.072v3.085h3.072v-3.085zm3.809 85.454h-3.073v3.084h3.073v-3.085zM57.557 7.776h-3.072v3.085h3.072V7.776zm0 7.777h-3.072v3.084h3.072v-3.084zm0 3.867h-3.072v3.084h3.072v-3.085zm0 7.775h-3.072v3.085h3.072v-3.085zm0-3.866h-3.072v3.084h3.072V23.33zm0 7.776h-3.072v3.085h3.072v-3.085zm7.573 50.482h-3.072v3.084h3.073v-3.085zm0-31.062h-3.072v3.084h3.073v-3.084zm0-7.777h-3.072v3.085h3.073v-3.085zm0-3.866h-3.072v3.084h3.073v-3.084zm0 23.285h-3.072v3.085h3.073v-3.085zm0-7.776h-3.072v3.084h3.073v-3.084zm0-19.419h-3.072v3.084h3.073v-3.084zm0 23.328h-3.072v3.085h3.073v-3.084zm0-54.39h-3.072v3.084h3.073V3.91zm0 7.776h-3.072v3.085h3.073v-3.085zm0-3.91h-3.072v3.085h3.073V7.776zm0 58.301h-3.072v3.085h3.073v-3.085zm0-34.972h-3.072v3.085h3.073v-3.085zm0-7.776h-3.072v3.084h3.073V23.33zm0-3.909h-3.072v3.084h3.073v-3.085zm-3.764 11.685h-3.073v3.085h3.073v-3.085zm3.764-15.552h-3.072v3.084h3.073v-3.084zm-3.764-3.867h-3.073v3.085h3.073v-3.085zm0-3.91h-3.073v3.085h3.073V7.776zm0 7.777h-3.073v3.084h3.073v-3.084zm3.764 85.496h-3.072v3.085h3.073v-3.085zm-3.764-73.854h-3.073v3.085h3.073v-3.085zm0-3.866h-3.073v3.084h3.073V23.33zm3.764 46.615h-3.072v3.084h3.073v-3.084zM61.366 19.42h-3.073v3.084h3.073v-3.085zm-3.809 50.524h-3.072v3.084h3.072v-3.084zm7.573 7.776h-3.072v3.085h3.073V77.72zm0-3.866h-3.072v3.084h3.073v-3.084zm0 15.509h-3.072v3.084h3.073v-3.084zm0-3.867h-3.072v3.085h3.073v-3.085zm0 7.777h-3.072v3.084h3.073v-3.084zm0 3.867h-3.072v3.084h3.073v-3.085zM53.792 31.105H50.72v3.085h3.072v-3.085zm-3.765 38.839h-3.072v3.084h3.072v-3.084zm0 3.91h-3.072v3.084h3.072v-3.084zm0-7.777h-3.072v3.085h3.072v-3.085zm0 15.51h-3.072v3.084h3.072v-3.085zm0 3.909h-3.072v3.085h3.072v-3.085zm0-7.776h-3.072v3.085h3.072V77.72zm0 11.643h-3.072v3.084h3.072v-3.084zm0-27.196h-3.072v3.085h3.072v-3.085zm0-27.195h-3.072v3.084h3.072v-3.084zm7.53 38.882h-3.072v3.084h3.072v-3.084zm-7.53-34.972h-3.072v3.084h3.072v-3.084zm0 11.643h-3.072v3.084h3.072v-3.084zm0-7.777h-3.072v3.085h3.072v-3.085zm0 15.552h-3.072v3.085h3.072v-3.084zm0-11.642h-3.072v3.085h3.072v-3.085zm-3.807 3.867h-3.073v3.084h3.072v-3.084zm0 3.866h-3.073v3.084h3.072v-3.084zm0 3.909h-3.073v3.085h3.072v-3.084zm0-11.642h-3.073v3.085h3.072v-3.085zm3.807-19.463h-3.072v3.085h3.072v-3.085zM46.22 11.686h-3.073v3.085h3.072v-3.085zm0 58.258h-3.073v3.084h3.072v-3.084zm0-3.867h-3.073v3.085h3.072v-3.085zm0-3.91h-3.073v3.085h3.072v-3.085zm0-38.838h-3.073v3.084h3.072V23.33zm0-3.909h-3.073v3.084h3.072v-3.085zm0-3.867h-3.073v3.084h3.072v-3.084zm0 23.329h-3.073v3.084h3.072v-3.084zm0 3.866h-3.073v3.085h3.072v-3.085zm0-7.776h-3.073v3.084h3.072v-3.084zm0-7.777h-3.073v3.085h3.072v-3.085zm3.807 3.91h-3.072v3.085h3.072v-3.085zm3.765-7.776H50.72v3.084h3.072V23.33zm0 3.866H50.72v3.085h3.072v-3.085zm0-7.775H50.72v3.084h3.072v-3.085zm0 19.462H50.72v3.084h3.072v-3.084zm0 3.866H50.72v3.085h3.072v-3.085zM46.22 73.854h-3.073v3.084h3.072v-3.084zm7.572-38.882H50.72v3.084h3.072v-3.084zm0-19.419H50.72v3.084h3.072v-3.084zm3.765 66.034h-3.072v3.084h3.072v-3.085zm0-3.867h-3.072v3.085h3.072V77.72zm0 7.776h-3.072v3.085h3.072v-3.085zm-3.765-77.72H50.72v3.085h3.072V7.776zm0 3.91H50.72v3.085h3.072v-3.085zm3.765 81.587h-3.072v3.084h3.072v-3.084zm0-3.91h-3.072v3.084h3.072v-3.084zM53.792 58.3H50.72v3.085h3.072v-3.084zm0 23.287H50.72v3.084h3.072v-3.085zm0 3.909H50.72v3.085h3.072v-3.085zm0 7.777H50.72v3.084h3.072v-3.084zm0-3.91H50.72v3.084h3.072v-3.084zM50.027 19.42h-3.072v3.084h3.072v-3.085zm0-7.734h-3.072v3.085h3.072v-3.085zm0 3.867h-3.072v3.084h3.072v-3.084zm3.765 50.524H50.72v3.085h3.072v-3.085zm0-11.686H50.72v3.084h3.072v-3.084zm-3.765-31.062h-3.072v3.084h3.072V23.33zm3.765 27.196H50.72v3.084h3.072v-3.084zm0-3.867H50.72v3.085h3.072v-3.085zm0 23.286H50.72v3.084h3.072v-3.084zm0 7.776H50.72v3.085h3.072V77.72zm0-15.553H50.72v3.085h3.072v-3.085z"/><path d="M23.542 15.553H20.47v3.084h3.072v-3.084zm-3.765 0h-3.072v3.084h3.072v-3.084zm11.339 3.867h-3.073v3.084h3.073v-3.085zm-3.808 0h-3.073v3.084h3.073v-3.085zm-3.766 0H20.47v3.084h3.072v-3.085zm-3.765 0h-3.072v3.084h3.072v-3.085zm-5.063 0H11.64v3.084h3.073v-3.085zm-11.641 0H0v3.084h3.073v-3.085zm28.043 7.775h-3.073v3.085h3.073v-3.085zm-3.808 0h-3.073v3.085h3.073v-3.085zm-3.766 0H20.47v3.085h3.072v-3.085zm-3.765 0h-3.072v3.085h3.072v-3.085zm11.339 11.687h-3.073v3.084h3.073v-3.084zm-3.808 0h-3.073v3.084h3.073v-3.084zm3.808 3.866h-3.073v3.085h3.073v-3.085zm-7.574 0H20.47v3.085h3.072v-3.085zm-3.765 0h-3.072v3.085h3.072v-3.085zm11.339 3.91h-3.073v3.085h3.073v-3.085zm-3.808 0h-3.073v3.085h3.073v-3.085zm-3.766 0H20.47v3.085h3.072v-3.085zm3.766 7.733h-3.073v3.084h3.073v-3.084zm-3.766 0H20.47v3.084h3.072v-3.084zm7.574 3.909h-3.073v3.085h3.073v-3.084zm-3.808 0h-3.073v3.085h3.073v-3.084zm-7.531 0h-3.072v3.085h3.072v-3.084zm3.765 3.867H20.47v3.085h3.072v-3.085zm-12.68 0H7.79v3.085h3.072v-3.085zm20.254 7.777h-3.073v3.084h3.073v-3.084zm-3.808 0h-3.073v3.084h3.073v-3.084zm-3.766 0H20.47v3.084h3.072v-3.084zm-3.765 0h-3.072v3.084h3.072v-3.084zm11.339 3.91h-3.073v3.084h3.073v-3.084zm0 7.733h-3.073v3.084h3.073v-3.085zm-3.808 0h-3.073v3.084h3.073v-3.085zm-3.766 0H20.47v3.084h3.072v-3.085zm-3.765 0h-3.072v3.084h3.072v-3.085zm26.269 7.776h-3.073v3.084h3.073v-3.084zm-7.271-8.037h-3.289v3.302h3.29v-3.302zm-.129 3.997h-3.073v3.084h3.073v-3.084zm-3.679 0h-3.072v3.084h3.072v-3.084zm56.908 4.083c7.054-7.69 11.858-16.9 11.858-27.977v-45.92c0-.999-.693-1.824-1.601-2.129L66.126.088c-.087-.044-.173-.044-.26-.087v108c.346 0 .736-.087 1.039-.261 8.915-4.822 18.046-10.817 24.97-18.333z"/></g><defs><clipPath id="ba"><path fill="#fff" d="M0 0h298v108H0z"/></clipPath></defs></svg><svg fill="none" viewBox="0 0 92 50" id="VK" xmlns="http://www.w3.org/2000/svg"><path d="M22.49 38.96L33.565.234h12.407L28.916 50h-8.1l1.674-11.04zM12.407.234l11.04 38.726L25.19 50h-8.203L.034.234h12.373zm48.843 0V50H50.107V.234H61.25zm29.736 0L71.504 25.117 60.156 37.422 58.14 27.065l7.485-10.732L77.315.234h13.671zM78.066 50l-13.74-22.73 8.477-6.596L91.26 50H78.066z" fill="#fff"/></svg><svg fill="none" viewBox="0 0 34 34" id="close-btn" xmlns="http://www.w3.org/2000/svg"><path fill-rule="evenodd" clip-rule="evenodd" d="M16.401 17.108L2 31.51l.707.708 14.401-14.402L31.51 32.217l.708-.707-14.402-14.402 14.402-14.4L31.51 2 17.108 16.401 2.708 2 2 2.707l14.401 14.401z" fill="#333"/><path d="M2 31.51l-.707-.708-.707.707.707.708L2 31.51zm14.401-14.402l.707.707.707-.707-.707-.707-.707.707zM2.707 32.217L2 32.924l.707.707.707-.707-.707-.707zm14.401-14.402l.707-.707-.707-.707-.707.707.707.707zM31.51 32.217l-.707.707.707.707.708-.707-.707-.707zm.708-.707l.707.707.707-.707-.707-.708-.707.707zM17.815 17.108l-.707-.707-.707.707.707.707.707-.707zm14.402-14.4l.707.706.707-.707L32.924 2l-.707.707zM31.51 2l.707-.707-.707-.707-.708.707.707.707zM17.108 16.401l-.707.707.707.707.707-.707-.707-.707zM2.708 2l.706-.707-.707-.707L2 1.293 2.707 2zM2 2.707L1.293 2l-.707.707.707.707L2 2.707zm.707 29.51l14.401-14.402-1.414-1.414L1.293 30.802l1.414 1.415zm.707-.707l-.707-.708-1.414 1.415.707.707 1.414-1.415zm12.987-14.402L2 31.51l1.414 1.415 14.401-14.401-1.414-1.415zM32.217 31.51l-14.402-14.4-1.414 1.413 14.401 14.402 1.415-1.415zm-.707-.707l-.708.707 1.415 1.415.707-.707-1.415-1.415zM17.108 17.815L31.51 32.217l1.415-1.415-14.401-14.4-1.415 1.413zM31.51 2l-14.4 14.401 1.413 1.414 14.402-14.4L31.509 2zm-.707.707l.707.707L32.925 2l-.707-.707-1.415 1.414zM17.815 17.108l14.402-14.4-1.415-1.415-14.4 14.401 1.413 1.414zM2 2.708l14.401 14.4 1.414-1.414-14.4-14.401L2 2.707zm.707.706l.707-.707L2 1.293 1.293 2l1.414 1.414zm14.401 12.987L2.708 2 1.292 3.414l14.401 14.401 1.414-1.414z" fill="#000"/></svg><svg fill="none" viewBox="0 0 46 47" id="in" xmlns="http://www.w3.org/2000/svg"><path d="M23 0C10.297 0 0 10.405 0 23.24c0 12.837 10.297 23.242 23 23.242S46 36.077 46 23.24 35.703 0 23 0zm-7.592 35.939a259.243 259.243 0 00-4.91 0c-.262 0-.34-.065-.34-.337a8679.9 8679.9 0 000-17.677c0-.245.057-.33.313-.33 1.66.01 3.319.013 4.978 0 .32 0 .361.12.361.399-.006 2.933-.003 5.867-.003 8.8 0 2.934-.003 5.819.007 8.728 0 .324-.079.42-.41.417h.004zM12.992 15.07c-1.782 0-3.26-1.487-3.267-3.288-.007-1.818 1.472-3.315 3.274-3.315 1.79 0 3.261 1.484 3.265 3.284 0 1.829-1.466 3.316-3.272 3.316v.003zm23.989 20.49c0 .3-.082.379-.375.376a291.178 291.178 0 00-4.91 0c-.29 0-.351-.087-.351-.362.01-3.054.01-6.108 0-9.165 0-.765-.051-1.533-.263-2.276-.392-1.37-1.363-2.07-2.784-1.994-1.942.103-2.95 1.074-3.199 3.068a11.17 11.17 0 00-.085 1.432c0 2.972 0 5.943.007 8.914 0 .297-.072.383-.372.383a291.348 291.348 0 00-4.947 0c-.266 0-.341-.07-.341-.341.007-5.881.007-11.765 0-17.646 0-.293.095-.358.368-.358 1.564.01 3.131.014 4.695 0 .29 0 .361.093.358.368-.017.703-.007 1.405-.007 2.11.379-.43.689-.863 1.077-1.232 1.193-1.136 2.603-1.708 4.252-1.694.907.007 1.8.072 2.672.327 1.997.582 3.155 1.973 3.71 3.943.416 1.477.491 2.995.495 4.517.006 3.209-.01 6.421 0 9.63z" fill="#fff"/></svg><svg fill="none" viewBox="0 0 103 167" id="location-icon" xmlns="http://www.w3.org/2000/svg"><path fill-rule="evenodd" clip-rule="evenodd" d="M51.5 0C79.902 0 103 23.14 103 51.593c0 19.008-36.769 87.956-46.786 108.499-3.653 8.973-7.307 9.445-11.55 0C35.709 139.549 0 70.011 0 51.593 0 23.14 23.098 0 51.5 0zm0 28.453c11.55 0 20.977 9.445 20.977 21.015S63.05 70.483 51.5 70.483s-20.977-9.445-20.977-21.015S39.95 28.453 51.5 28.453z" fill="#FF0BAB"/></svg><svg fill="none" viewBox="0 0 234 24" id="next-btn" xmlns="http://www.w3.org/2000/svg"><path d="M233.061 13.06a1.502 1.502 0 000-2.12l-9.546-9.547a1.5 1.5 0 00-2.122 2.122L229.879 12l-8.486 8.485a1.501 1.501 0 002.122 2.122l9.546-9.546zM0 13.5h232v-3H0v3z" fill="#FF0BAB"/></svg><svg fill="none" viewBox="0 0 234 24" id="prev-btn" xmlns="http://www.w3.org/2000/svg"><path d="M.94 10.94a1.5 1.5 0 000 2.12l9.545 9.547a1.5 1.5 0 102.122-2.122L4.12 12l8.486-8.485a1.5 1.5 0 10-2.122-2.122L.94 10.94zM2 13.5h232v-3H2v3z" fill="#FF0BAB"/></svg><svg fill="none" viewBox="0 0 46 47" id="telegram" xmlns="http://www.w3.org/2000/svg"><path d="M23 .482c-12.703 0-23 10.405-23 23.24C0 36.56 10.297 46.965 23 46.965S46 36.56 46 23.724 35.703.482 23 .482zm11.214 14.781c-.13 2.135-4.048 18.066-4.048 18.066s-.235.933-1.074.964c-.306.01-.678-.051-1.12-.437-.887-.768-2.934-2.238-4.84-3.567a48.565 48.565 0 00-2.912 2.692c-1.684 1.701-1.469 0-1.469 0l.518-5.553.014.006a.547.547 0 01.06-.103s9.92-8.91 10.182-9.844c.02-.072-.058-.106-.16-.075-.658.244-12.08 7.533-13.34 8.335-.075.049-.28.018-.28.018l-5.54-1.825s-.66-.272-.45-.889c.045-.127.133-.234.396-.42 1.226-.864 22.724-8.673 22.724-8.673s.606-.206.964-.069c.163.062.27.135.358.393.03.093.05.296.047.496 0 .144-.02.275-.03.485z" fill="#fff"/></svg><svg fill="none" viewBox="0 0 66 53" id="twitter" xmlns="http://www.w3.org/2000/svg"><path d="M65.293 6.668a27.343 27.343 0 01-7.09 1.81 13.387 13.387 0 005.76-6.834c.069-.178-.132-.348-.303-.247a27.126 27.126 0 01-8.096 2.956C53.103 1.768 49.596.158 45.704.158c-7.455 0-13.507 5.952-13.507 13.298 0 1.045.124 2.059.348 3.034-11.184-.557-21.115-5.813-27.772-13.81-.03-.038-.1-.038-.123.008a13.15 13.15 0 00-1.773 6.595c0 4.505 2.283 8.498 5.774 10.906.07.046.031.154-.054.147a13.573 13.573 0 01-5.72-1.595c-.046-.023-.108.008-.1.062.03.588.224 3.19.913 4.869 1.703 4.148 5.371 7.322 9.923 8.22a14.272 14.272 0 01-3.569.472c-.82 0-1.625-.078-2.422-.225-.054-.007-.1.047-.085.101 1.741 5.147 6.587 8.909 12.353 9.102.077 0 .108.101.046.147-4.597 3.491-10.34 5.558-16.594 5.558-1.092 0-2.152-.062-3.213-.186a38.698 38.698 0 0020.705 5.968c10.511 0 19.002-3.623 25.303-9.134 6.362-5.565 10.488-13.042 12.206-20.666.604-2.678.92-5.387.92-8.026 0-.573-.014-1.146-.045-1.718a27.116 27.116 0 006.323-6.293c.124-.186-.054-.41-.248-.325z" fill="#fff"/></svg></svg>