<svg width="34" height="34" viewBox="0 0 34 34" fill="none" xmlns="http://www.w3.org/2000/svg">
<path fill-rule="evenodd" clip-rule="evenodd" d="M16.4012 17.1083L2 31.5095L2.70711 32.2167L17.1083 17.8154L31.5095 32.2167L32.2167 31.5095L17.8154 17.1083L32.2167 2.70711L31.5095 2L17.1083 16.4012L2.70711 2L2 2.70711L16.4012 17.1083Z" fill="#333333"/>
<path d="M2 31.5095L1.29289 30.8024L0.585787 31.5095L1.29289 32.2167L2 31.5095ZM16.4012 17.1083L17.1083 17.8154L17.8154 17.1083L17.1083 16.4012L16.4012 17.1083ZM2.70711 32.2167L2 32.9238L2.70711 33.6309L3.41421 32.9238L2.70711 32.2167ZM17.1083 17.8154L17.8154 17.1083L17.1083 16.4012L16.4012 17.1083L17.1083 17.8154ZM31.5095 32.2167L30.8024 32.9238L31.5095 33.6309L32.2167 32.9238L31.5095 32.2167ZM32.2167 31.5095L32.9238 32.2166L33.6309 31.5095L32.9238 30.8024L32.2167 31.5095ZM17.8154 17.1083L17.1083 16.4012L16.4012 17.1083L17.1083 17.8154L17.8154 17.1083ZM32.2167 2.70711L32.9238 3.41421L33.6309 2.70711L32.9238 2L32.2167 2.70711ZM31.5095 2L32.2167 1.29289L31.5095 0.585787L30.8024 1.29289L31.5095 2ZM17.1083 16.4012L16.4012 17.1083L17.1083 17.8154L17.8154 17.1083L17.1083 16.4012ZM2.70711 2L3.41422 1.29289L2.70711 0.585786L2.00001 1.29289L2.70711 2ZM2 2.70711L1.2929 2L0.585791 2.70711L1.2929 3.41421L2 2.70711ZM2.70711 32.2167L17.1083 17.8154L15.6941 16.4012L1.29289 30.8024L2.70711 32.2167ZM3.41421 31.5095L2.70711 30.8024L1.29289 32.2167L2 32.9238L3.41421 31.5095ZM16.4012 17.1083L2 31.5095L3.41421 32.9238L17.8154 18.5225L16.4012 17.1083ZM32.2167 31.5095L17.8154 17.1083L16.4012 18.5225L30.8024 32.9238L32.2167 31.5095ZM31.5095 30.8024L30.8024 31.5095L32.2167 32.9238L32.9238 32.2166L31.5095 30.8024ZM17.1083 17.8154L31.5095 32.2167L32.9238 30.8024L18.5225 16.4012L17.1083 17.8154ZM31.5095 2L17.1083 16.4012L18.5225 17.8154L32.9238 3.41421L31.5095 2ZM30.8024 2.70711L31.5095 3.41421L32.9238 2L32.2167 1.29289L30.8024 2.70711ZM17.8154 17.1083L32.2167 2.70711L30.8024 1.29289L16.4012 15.6941L17.8154 17.1083ZM2.00001 2.70711L16.4012 17.1083L17.8154 15.6941L3.41422 1.29289L2.00001 2.70711ZM2.70711 3.41421L3.41422 2.70711L2.00001 1.29289L1.2929 2L2.70711 3.41421ZM17.1083 16.4012L2.70711 2L1.2929 3.41421L15.6941 17.8154L17.1083 16.4012Z" fill="black"/>
</svg>
