<svg width="46" height="47" viewBox="0 0 46 47" fill="none" xmlns="http://www.w3.org/2000/svg">
<path d="M23 0C10.2972 0 0 10.405 0 23.2409C0 36.0767 10.2972 46.4818 23 46.4818C35.7028 46.4818 46 36.0767 46 23.2409C46 10.405 35.7028 0 23 0ZM15.4083 35.939C13.7727 35.9218 12.1372 35.9252 10.4982 35.939C10.2359 35.939 10.1575 35.8736 10.1575 35.6016C10.1643 29.7105 10.1643 23.8193 10.1575 17.9248C10.1575 17.6803 10.2154 17.5942 10.471 17.5942C12.1304 17.6045 13.7898 17.608 15.4492 17.5942C15.7695 17.5942 15.8104 17.7147 15.8104 17.9936C15.8036 20.9271 15.807 23.8606 15.807 26.7942C15.807 29.7277 15.8036 32.613 15.8138 35.5224C15.8138 35.8461 15.7354 35.9425 15.4049 35.939H15.4083ZM12.9924 15.0704C11.2104 15.0704 9.73156 13.583 9.72474 11.7823C9.71793 9.96432 11.1967 8.46657 12.9993 8.46657C14.7881 8.46657 16.2601 9.95055 16.2636 11.7513C16.2636 13.5796 14.7984 15.067 12.9924 15.067V15.0704ZM36.9806 35.5603C36.9806 35.8598 36.8988 35.939 36.6058 35.9356C34.9702 35.9218 33.3313 35.9218 31.6957 35.9356C31.4061 35.9356 31.3447 35.8495 31.3447 35.5741C31.355 32.52 31.355 29.466 31.3447 26.4085C31.3447 25.6442 31.2936 24.8764 31.0824 24.1327C30.6905 22.7623 29.7194 22.0634 28.2985 22.1391C26.3563 22.2424 25.3477 23.2133 25.099 25.2069C25.041 25.682 25.0104 26.1606 25.0138 26.6392C25.0138 29.6106 25.0138 32.582 25.0206 35.5534C25.0206 35.8495 24.949 35.9356 24.6492 35.9356C23 35.9218 21.3508 35.9218 19.7016 35.9356C19.4359 35.9356 19.3609 35.8667 19.3609 35.5947C19.3677 29.7139 19.3677 23.8297 19.3609 17.9489C19.3609 17.6562 19.4563 17.5908 19.7289 17.5908C21.2929 17.6011 22.8603 17.6045 24.4243 17.5908C24.7139 17.5908 24.7855 17.6837 24.7821 17.9592C24.765 18.6616 24.7753 19.364 24.7753 20.0698C25.1535 19.6394 25.4636 19.2056 25.852 18.8372C27.0446 17.701 28.4553 17.1294 30.1044 17.1432C31.0108 17.1501 31.9036 17.2155 32.7759 17.4703C34.7726 18.0521 35.9311 19.4432 36.4865 21.4126C36.9022 22.8897 36.9772 24.4081 36.9806 25.93C36.9874 29.1389 36.9704 32.3513 36.9806 35.5603Z" fill="white"/>
</svg>
