<svg width="103" height="167" viewBox="0 0 103 167" fill="none" xmlns="http://www.w3.org/2000/svg">
<path fill-rule="evenodd" clip-rule="evenodd" d="M51.5 0C79.9016 0 103 23.1402 103 51.5931C103 70.6011 66.2311 139.549 56.214 160.092C52.5606 169.065 48.9073 169.537 44.6648 160.092C35.7082 139.549 0 70.0108 0 51.5931C0 23.1402 23.0984 0 51.5 0ZM51.5 28.453C63.0492 28.453 72.4771 37.8979 72.4771 49.468C72.4771 61.0381 63.0492 70.4831 51.5 70.4831C39.9508 70.4831 30.5229 61.0381 30.5229 49.468C30.5229 37.8979 39.9508 28.453 51.5 28.453Z" fill="#FF0BAB"/>
</svg>
