<svg width="283" height="100" viewBox="0 0 283 100" fill="none" xmlns="http://www.w3.org/2000/svg">
<path d="M100.141 14.8501C103.083 14.6819 106.007 15.4149 108.524 16.9517C109.517 17.6496 110.316 18.5909 110.843 19.6855C111.37 20.7801 111.608 21.9915 111.535 23.2045C111.557 24.5496 111.171 25.8697 110.427 26.9902C109.625 28.1395 108.486 29.0108 107.168 29.4835C108.811 29.7599 110.283 30.6628 111.275 32.0028C112.172 33.3144 112.629 34.8782 112.578 36.4672C112.664 37.7209 112.446 38.9767 111.945 40.1286C111.443 41.2805 110.672 42.2946 109.697 43.0854C107.298 44.7246 104.421 45.5148 101.523 45.3307H86.5555V41.6757L89.789 41.0491V19.1709L86.5555 18.5444V14.8501H100.075H100.141ZM95.9687 27.6298H100.349C101.681 27.7135 103.004 27.3606 104.117 26.6246C104.554 26.2757 104.9 25.8268 105.127 25.3156C105.354 24.8044 105.455 24.2459 105.421 23.6875C105.471 23.1008 105.378 22.5107 105.151 21.9675C104.924 21.4243 104.569 20.9441 104.117 20.5676C102.952 19.8265 101.583 19.4746 100.206 19.5625H95.9165L95.9687 27.6298ZM95.9687 31.8592V40.6444H101.588C102.907 40.735 104.217 40.3611 105.29 39.5871C105.731 39.2013 106.078 38.7194 106.304 38.1786C106.53 37.6378 106.629 37.0524 106.594 36.4672C106.68 35.2249 106.288 33.9967 105.499 33.0341C105.041 32.6088 104.5 32.2845 103.909 32.0821C103.319 31.8797 102.692 31.8038 102.07 31.8592H95.9687Z" fill="white"/>
<path d="M124.912 18.5444L122.435 18.8967L127.154 28.909H127.285L132.004 18.8967L129.54 18.5444V14.85H141.065V18.5444L138.458 18.962L130.179 34.6266V41.0622L133.438 41.6887V45.3437H120.831V41.6887L124.09 41.0622V34.3133L115.955 18.9751L113.348 18.5574V14.8631H124.86L124.912 18.5444Z" fill="white"/>
<path d="M170.23 14.85V22.9825H165.55L165.302 19.5624H159.696V41.0491L162.955 41.6757V45.3306H150.322V41.6757L153.594 41.0491V19.5624H148.001L147.753 22.9825H143.099V14.85H170.23Z" fill="white"/>
<path d="M191.833 31.9376H181.533V40.6444H191.351L191.624 37.0025H196.305V45.3306H172.186V41.6757L175.419 41.0491V19.1709L172.186 18.5444V14.85H196.227V23.2045H191.546L191.272 19.5624H181.533V27.225H191.833V31.9376Z" fill="white"/>
<path d="M222.653 24.5882H218.077L217.282 20.3978C216.556 19.9922 215.774 19.6975 214.961 19.5233C213.898 19.2677 212.808 19.1405 211.715 19.1447C210.33 19.0502 208.953 19.4223 207.804 20.202C207.385 20.5199 207.048 20.9334 206.822 21.4079C206.595 21.8825 206.485 22.4045 206.5 22.9304C206.486 23.4538 206.612 23.9715 206.864 24.4303C207.116 24.8891 207.485 25.2725 207.934 25.5411C209.475 26.4695 211.138 27.177 212.875 27.6428C215.664 28.299 218.273 29.565 220.515 31.35C221.371 32.1033 222.048 33.0374 222.499 34.0849C222.95 35.1324 223.163 36.267 223.123 37.407C223.164 38.6141 222.901 39.812 222.359 40.891C221.817 41.9699 221.012 42.8951 220.02 43.5814C217.614 45.1862 214.759 45.9776 211.871 45.8397C209.646 45.8727 207.434 45.4829 205.353 44.6909C203.519 43.9973 201.859 42.9102 200.49 41.5059V35.1487H205.209L205.861 39.4825C206.61 40.0497 207.46 40.4705 208.364 40.7227C209.506 41.0661 210.693 41.2333 211.884 41.2187C213.237 41.3124 214.582 40.9492 215.705 40.1874C216.124 39.8675 216.461 39.4518 216.688 38.975C216.915 38.4981 217.025 37.974 217.008 37.4462C217.023 36.9074 216.912 36.3725 216.686 35.8834C216.46 35.3943 216.124 34.9642 215.705 34.6265C214.398 33.6785 212.919 32.9955 211.35 32.6162C208.415 31.8752 205.637 30.6106 203.149 28.8828C202.247 28.1953 201.523 27.3001 201.04 26.273C200.557 25.2459 200.328 24.117 200.372 22.9825C200.358 21.7919 200.637 20.6161 201.185 19.5595C201.733 18.5029 202.533 17.5982 203.515 16.9256C205.794 15.296 208.537 14.4445 211.337 14.4975C213.517 14.4744 215.684 14.8368 217.738 15.568C219.523 16.1958 221.169 17.1619 222.588 18.4136L222.653 24.5882Z" fill="white"/>
<path d="M86.3861 81.8944C86.3356 80.3701 86.7944 78.8726 87.6898 77.6388C88.8774 76.1899 90.2749 74.9271 91.8358 73.8924C91.0014 72.8031 90.2888 71.6257 89.7107 70.381C89.249 69.3596 89.009 68.2517 89.0066 67.1306C88.9564 66.0611 89.1326 64.993 89.5235 63.9964C89.9145 62.9998 90.5114 62.0971 91.2751 61.3477C92.088 60.6045 93.0403 60.0304 94.0765 59.6584C95.1126 59.2865 96.2122 59.1242 97.3115 59.1809C98.3059 59.1394 99.2984 59.3008 100.228 59.6554C101.159 60.01 102.007 60.5502 102.722 61.2433C103.391 61.8877 103.92 62.663 104.276 63.5209C104.633 64.3787 104.81 65.3007 104.795 66.2298C104.81 67.5489 104.457 68.846 103.778 69.9762C103.056 71.1493 102.102 72.1622 100.975 72.9525L99.0325 74.3363L104.795 81.072C105.309 80.2253 105.704 79.3117 105.968 78.3568C106.249 77.3453 106.39 76.2999 106.386 75.25H110.949C110.962 77.0503 110.721 78.8435 110.232 80.5759C109.789 82.1384 109.049 83.6009 108.054 84.8837L112.409 90.0009V90.1052H105.629L104.026 88.2386C102.892 88.9835 101.659 89.5636 100.362 89.9617C99.0521 90.3576 97.6893 90.5512 96.3208 90.536C93.6914 90.6735 91.1056 89.8215 89.0719 88.1472C88.1912 87.3679 87.4937 86.4031 87.0294 85.3221C86.565 84.241 86.3453 83.0704 86.3861 81.8944ZM96.6596 85.8105C98.1786 85.7996 99.671 85.4092 101.001 84.6748L94.7301 77.3909L94.339 77.6649C93.7168 78.2044 93.2186 78.8724 92.8789 79.623C92.6244 80.2309 92.4914 80.8829 92.4877 81.542C92.4695 82.1047 92.5626 82.6653 92.7617 83.1918C92.9609 83.7182 93.2621 84.2002 93.648 84.6096C94.0316 85.0208 94.4991 85.3444 95.0188 85.5584C95.5385 85.7724 96.0981 85.8717 96.6596 85.8497V85.8105ZM94.5216 67.0262C94.5284 67.6696 94.6798 68.3031 94.9648 68.8798C95.3219 69.6297 95.7591 70.3387 96.2686 70.9945L98.0677 69.8196C98.718 69.4459 99.2613 68.9111 99.6452 68.2663C99.918 67.7287 100.057 67.1331 100.049 66.5302C100.053 66.1844 99.9881 65.8413 99.8583 65.5209C99.7285 65.2004 99.5364 64.9089 99.2932 64.6634C99.0359 64.3924 98.7235 64.18 98.3771 64.0404C98.0307 63.9007 97.6585 63.8372 97.2855 63.8541C96.8918 63.831 96.498 63.9004 96.1358 64.0568C95.7736 64.2132 95.4529 64.4521 95.1994 64.7547C94.7125 65.4228 94.473 66.2397 94.5216 67.0653V67.0262Z" fill="white"/>
<path d="M137.506 59.6116C140.41 59.4453 143.282 60.2841 145.641 61.9873C146.607 62.7692 147.377 63.7669 147.889 64.9003C148.401 66.0338 148.64 67.2714 148.588 68.5142C148.623 69.9475 148.193 71.3537 147.362 72.5218C146.416 73.7391 145.166 74.6847 143.738 75.2631C145.321 75.616 146.715 76.5468 147.649 77.8738C148.473 79.261 148.88 80.8561 148.822 82.4688V84.009C148.793 84.5603 148.935 85.1074 149.227 85.5756C149.385 85.7713 149.583 85.9308 149.808 86.0434C150.033 86.156 150.279 86.219 150.53 86.2283L151.287 86.3326V90.027H148.066C147.287 90.1091 146.499 90.0051 145.767 89.7237C145.035 89.4424 144.38 88.9916 143.855 88.4082C143.004 87.1919 142.577 85.728 142.643 84.2441V82.508C142.718 81.2355 142.292 79.9841 141.456 79.0226C141.022 78.588 140.502 78.2477 139.93 78.0231C139.358 77.7985 138.746 77.6944 138.132 77.7172H133.125V85.7584L136.398 86.3849V90.0529H123.791V86.3849L127.024 85.7584V63.8802L123.791 63.2536V59.5593H137.454L137.506 59.6116ZM133.177 73.057H137.402C138.767 73.1589 140.124 72.7752 141.235 71.9735C141.675 71.5812 142.02 71.0946 142.246 70.5499C142.472 70.0051 142.572 69.4163 142.538 68.8275C142.559 68.2207 142.454 67.6163 142.23 67.0523C142.006 66.4883 141.667 65.9772 141.235 65.5511C140.196 64.6683 138.852 64.2277 137.493 64.324H133.164L133.177 73.057Z" fill="white"/>
<path d="M153.281 63.358V59.6638H165.889V63.358L162.629 63.9845V85.8627L165.889 86.4893V90.1575H153.281V86.4893L156.541 85.8627V63.9845L153.281 63.358Z" fill="white"/>
<path d="M193.424 86.7113C192.155 87.8425 190.687 88.7277 189.095 89.3221C186.794 90.1737 184.35 90.5727 181.898 90.4969C180.027 90.5656 178.163 90.2317 176.431 89.5179C174.699 88.8041 173.14 87.7268 171.86 86.3588C169.195 83.4323 167.79 79.5724 167.948 75.6156V74.5712C167.769 70.5117 169.129 66.5344 171.755 63.4364C172.995 62.0272 174.531 60.9109 176.254 60.1682C177.976 59.4255 179.842 59.075 181.716 59.1417C183.94 59.1194 186.149 59.5043 188.235 60.2774C190.073 60.9503 191.747 62.0046 193.15 63.3711V69.5063H188.639L187.778 65.4205C187.126 64.8966 186.378 64.5063 185.575 64.2717C184.554 63.9801 183.495 63.8395 182.433 63.8541C181.234 63.7984 180.04 64.0383 178.956 64.5527C177.872 65.0671 176.93 65.8403 176.214 66.8043C174.649 69.0674 173.871 71.7826 173.998 74.5322V75.6156C173.865 78.2666 174.632 80.8846 176.175 83.0431C176.927 83.9687 177.887 84.7023 178.978 85.1835C180.068 85.6646 181.257 85.8794 182.446 85.8105C183.45 85.8345 184.454 85.7292 185.432 85.4972C186.059 85.3409 186.661 85.0948 187.218 84.7663V79.5448L182.863 79.2054V74.9106H193.293L193.424 86.7113Z" fill="white"/>
<path d="M196.474 63.358V59.6638H209.082V63.358L205.822 63.9845V72.7697H218.247V63.9845L214.974 63.358V59.6638H227.595V63.358L224.335 63.9845V85.8627L227.595 86.4893V90.1575H214.987V86.4893L218.26 85.8627V77.4821H205.835V85.8627L209.095 86.4893V90.1575H196.487V86.4893L199.734 85.8627V63.9845L196.474 63.358Z" fill="white"/>
<path d="M256.759 59.6116V67.744H252.066L251.818 64.324H246.212V85.8105L249.485 86.4372V90.1052H236.851V86.4372L240.111 85.8105V64.324H234.531L234.283 67.744H229.616V59.6116H256.759Z" fill="white"/>
<path d="M281.57 69.3497H276.994L276.198 65.1595C275.473 64.7538 274.69 64.459 273.878 64.2848C272.815 64.0291 271.725 63.9022 270.631 63.9064C269.246 63.8118 267.869 64.1839 266.72 64.9636C266.3 65.2828 265.962 65.6985 265.735 66.1755C265.508 66.6525 265.399 67.1769 265.416 67.7049C265.415 68.2139 265.545 68.7147 265.794 69.1585C266.043 69.6022 266.402 69.9739 266.837 70.2374C268.386 71.1629 270.053 71.8742 271.792 72.3521C274.58 73.0016 277.19 74.2633 279.432 76.0463C280.286 76.8007 280.962 77.7351 281.413 78.7823C281.864 79.8295 282.078 80.9636 282.039 82.1033C282.077 83.3098 281.812 84.5066 281.27 85.5849C280.729 86.6632 279.926 87.5888 278.936 88.2777C276.533 89.8867 273.676 90.6785 270.788 90.536C268.562 90.569 266.35 90.1792 264.269 89.3872C262.434 88.6971 260.773 87.6095 259.406 86.2022V79.845H264.1L264.751 84.1788C265.492 84.7667 266.337 85.2095 267.242 85.4842C268.388 85.8259 269.579 85.9931 270.775 85.9802C272.124 86.076 273.465 85.7127 274.582 84.9491C275.003 84.6306 275.341 84.2152 275.568 83.738C275.795 83.2608 275.904 82.7358 275.885 82.2076C275.9 81.6689 275.79 81.1342 275.563 80.6451C275.337 80.156 275.001 79.7258 274.582 79.3881C273.275 78.4401 271.796 77.7572 270.227 77.3778C267.289 76.6457 264.509 75.3803 262.027 73.6444C261.124 72.9569 260.4 72.0616 259.917 71.0345C259.434 70.0073 259.205 68.8787 259.25 67.7441C259.236 66.5551 259.514 65.381 260.059 64.3248C260.605 63.2686 261.402 62.3628 262.379 61.6871C264.66 60.0617 267.402 59.2108 270.201 59.2591C272.381 59.236 274.548 59.5985 276.602 60.3296C278.384 60.9633 280.03 61.9288 281.453 63.1753L281.57 69.3497Z" fill="white"/>
<path d="M66.0087 12.814L35.6836 1.28735C34.6392 0.882731 33.4816 0.882731 32.4373 1.28735L2.89436 12.8009C2.04269 13.1243 1.30951 13.6998 0.792483 14.4506C0.275455 15.2015 -0.000951786 16.0922 2.46247e-06 17.0042V56.9357C2.46247e-06 66.2953 3.58529 75.0414 10.6646 82.9389C15.8796 88.7609 22.9068 94.0999 32.1373 99.217L32.3459 99.3867C33.008 99.7547 33.7529 99.9479 34.5102 99.9479C35.2675 99.9479 36.0123 99.7547 36.6744 99.3867C46.0484 94.1652 53.1667 88.8392 58.4469 82.9389C65.5132 75.1067 69.0986 66.2822 69.0986 56.9357V17.0564C69.0972 16.1131 68.7974 15.1945 68.2423 14.4323C67.6872 13.6701 66.9053 13.1036 66.0087 12.814ZM14.4325 79.1533C8.3179 72.3131 5.21506 64.7942 5.21506 56.8836V17.9179L33.8191 6.80924H33.8974V93.9042C25.5144 89.2178 19.1259 84.3879 14.4325 79.1533Z" fill="#FF0BAB"/>
</svg>
