<svg width="298" height="108" viewBox="0 0 298 108" fill="none" xmlns="http://www.w3.org/2000/svg">
<g clip-path="url(#clip0_1235_5511)">
<path d="M127.535 16.3781C130.824 16.3781 133.377 17.0298 135.195 18.2896C137.013 19.5495 137.965 21.461 137.965 24.0241C137.965 25.3274 137.619 26.457 136.926 27.4996C136.234 28.4988 135.238 29.2808 133.94 29.8021C135.628 30.1496 136.84 30.9316 137.705 32.1046C138.527 33.2775 138.96 34.6243 138.96 36.1883C138.96 38.8817 138.095 40.8801 136.32 42.2703C134.546 43.6605 132.079 44.3121 128.833 44.3121H115.158V40.967L118.101 40.4022V20.3315L115.158 19.7667V16.3781H118.101H127.535ZM123.727 28.0644H127.752C129.223 28.0644 130.391 27.7603 131.17 27.152C131.949 26.5438 132.382 25.6315 132.382 24.4586C132.382 23.1553 131.993 22.1995 131.17 21.5913C130.348 20.9831 129.136 20.679 127.535 20.679H123.727V28.0644ZM123.727 31.9308V39.9678H128.877C130.348 39.9678 131.473 39.6637 132.252 39.0121C133.031 38.3604 133.421 37.4047 133.421 36.1448C133.421 34.7981 133.075 33.712 132.425 33.0169C131.776 32.2784 130.738 31.9308 129.31 31.9308H123.727Z" fill="white"/>
<path d="M151.77 19.7667L149.476 20.1142L153.804 29.2808H153.934L158.261 20.1142L156.011 19.7667V16.3781H166.527V19.7667L164.147 20.1577L156.574 34.494V40.4022L159.56 40.967V44.3121H148.048V40.967L151.034 40.4022V34.1899L143.591 20.1577L141.254 19.7667V16.3781H151.77V19.7667Z" fill="white"/>
<path d="M193.401 16.3781V23.8069H189.117L188.901 20.679H183.794V40.3588L186.78 40.9236V44.2687H175.225V40.9236L178.211 40.3588V20.679H173.105L172.889 23.8069H168.647V16.3781H193.401Z" fill="white"/>
<path d="M213.741 32.0177H204.307V40.0113H213.265L213.525 36.6661H217.766V44.3121H195.782V40.967L198.725 40.4022V20.3315L195.782 19.7667V16.3781H198.725H217.723V24.0241H213.438L213.179 20.679H204.264V27.7168H213.698L213.741 32.0177Z" fill="white"/>
<path d="M242.52 25.284H238.322L237.586 21.461C237.11 21.1569 236.375 20.8962 235.466 20.6356C234.557 20.4183 233.562 20.288 232.523 20.288C231.009 20.288 229.797 20.5921 228.975 21.2438C228.152 21.8954 227.72 22.7208 227.72 23.7635C227.72 24.7192 228.152 25.5012 229.018 26.1094C229.883 26.7176 231.398 27.3693 233.519 28.0209C236.591 28.8898 238.928 30.0193 240.486 31.4095C242.087 32.7997 242.866 34.6677 242.866 36.9702C242.866 39.3596 241.914 41.2277 240.053 42.6179C238.149 44.008 235.682 44.7031 232.61 44.7031C230.403 44.7031 228.412 44.3556 226.638 43.6605C224.863 42.9654 223.392 41.9662 222.18 40.7498V34.885H226.508L227.114 38.8383C227.676 39.3162 228.455 39.6637 229.407 39.9678C230.359 40.2719 231.441 40.4023 232.61 40.4023C234.124 40.4023 235.293 40.0981 236.115 39.4465C236.894 38.8383 237.327 37.9694 237.327 36.9268C237.327 35.8407 236.937 34.9718 236.202 34.3202C235.423 33.6685 234.124 33.0603 232.22 32.4956C228.931 31.5398 226.421 30.4103 224.733 29.0636C223.046 27.7603 222.18 25.9356 222.18 23.6766C222.18 21.4175 223.132 19.5495 225.036 18.1158C226.941 16.6822 229.364 15.9437 232.22 15.9002C234.341 15.9002 236.288 16.2478 238.063 16.8994C239.837 17.5511 241.308 18.4199 242.477 19.506V25.284H242.52Z" fill="white"/>
<path d="M114.941 77.7635C114.941 76.243 115.374 74.9397 116.196 73.8536C117.019 72.7675 118.274 71.638 119.961 70.4216C119.096 69.2486 118.447 68.1625 118.014 67.2068C117.581 66.251 117.365 65.2518 117.365 64.2526C117.365 62.037 118.057 60.2558 119.442 58.9525C120.827 57.6492 122.645 56.9541 124.981 56.9541C127.015 56.9541 128.66 57.5623 129.915 58.8222C131.17 60.0821 131.819 61.6026 131.819 63.3837C131.819 64.6436 131.516 65.7731 130.867 66.8158C130.261 67.8584 129.396 68.7707 128.314 69.5527L126.539 70.8126L131.819 76.9815C132.295 76.1995 132.641 75.3741 132.901 74.5052C133.161 73.5929 133.291 72.6806 133.291 71.6814H137.445C137.445 73.4626 137.229 75.07 136.796 76.5471C136.363 78.0241 135.714 79.3274 134.805 80.5004L138.787 85.1923L138.743 85.2792H132.555L131.083 83.5849C130.002 84.28 128.876 84.8013 127.751 85.1488C126.626 85.4964 125.371 85.6701 124.073 85.6701C121.303 85.6701 119.096 84.9316 117.451 83.4545C115.764 82.0644 114.941 80.1529 114.941 77.7635ZM124.332 81.4127C125.025 81.4127 125.674 81.3258 126.366 81.1521C127.059 80.9783 127.708 80.7176 128.314 80.3701L122.601 73.6798L122.255 73.9405C121.606 74.5487 121.173 75.1569 120.914 75.7216C120.697 76.2864 120.567 76.8946 120.567 77.4594C120.567 78.5889 120.914 79.5447 121.606 80.2832C122.298 81.0217 123.207 81.4127 124.332 81.4127ZM122.385 64.2092C122.385 64.7739 122.515 65.3387 122.774 65.9035C123.034 66.4682 123.467 67.1199 123.986 67.815L125.631 66.7289C126.323 66.251 126.842 65.8166 127.059 65.2953C127.318 64.8174 127.448 64.2961 127.448 63.6879C127.448 63.0362 127.232 62.4714 126.756 61.9936C126.28 61.5157 125.674 61.255 124.938 61.255C124.116 61.255 123.467 61.5157 123.034 62.0804C122.601 62.6887 122.385 63.3838 122.385 64.2092Z" fill="white"/>
<path d="M162.848 57.3886C166.007 57.3886 168.474 58.1271 170.292 59.5607C172.066 60.9944 172.975 63.0362 172.975 65.5559C172.975 66.9461 172.585 68.1625 171.85 69.2052C171.114 70.2478 169.989 71.0732 168.561 71.7249C170.205 72.2027 171.374 73.0282 172.109 74.1577C172.845 75.2872 173.191 76.6774 173.191 78.3717V79.8053C173.191 80.4135 173.321 80.8914 173.538 81.2389C173.797 81.5865 174.187 81.7603 174.749 81.8471L175.442 81.934V85.3226H172.542C170.725 85.3226 169.426 84.8447 168.691 83.8455C167.955 82.8463 167.565 81.5865 167.565 80.0225V78.4151C167.565 77.0684 167.219 75.9823 166.484 75.2438C165.748 74.4618 164.752 74.0708 163.454 74.0273H158.91V81.3693L161.896 81.934V85.2792H150.385V81.934L153.328 81.3693V61.3419L150.385 60.7772V57.3886H153.328H162.848ZM158.867 69.683H162.718C164.276 69.683 165.445 69.3355 166.224 68.6838C167.003 68.0322 167.392 67.0764 167.392 65.8166C167.392 64.5567 167.003 63.5575 166.224 62.819C165.445 62.0805 164.32 61.6895 162.805 61.6895H158.867V69.683Z" fill="white"/>
<path d="M177.822 60.7772V57.3886H189.333V60.7772L186.347 61.3419V81.3693L189.333 81.934V85.2792H177.822V81.934L180.808 81.3693V61.3419L177.822 60.7772Z" fill="white"/>
<path d="M215.083 82.1947C214.174 83.107 212.876 83.889 211.144 84.6275C209.413 85.3661 207.206 85.7136 204.566 85.7136C200.801 85.7136 197.772 84.4537 195.392 81.934C193.055 79.4143 191.843 76.1126 191.843 72.0724V71.1167C191.843 66.9461 193.012 63.5575 195.349 60.9075C197.686 58.3009 200.715 56.9976 204.437 56.9976C206.6 56.9976 208.591 57.3451 210.409 58.0402C212.226 58.7353 213.698 59.6911 214.909 60.864V66.4682H210.798L210.019 62.7321C209.5 62.2977 208.851 61.9501 207.985 61.6895C207.163 61.4288 206.211 61.2985 205.129 61.2985C202.706 61.2985 200.801 62.2108 199.46 63.992C198.118 65.7731 197.426 68.1625 197.426 71.0732V72.0724C197.426 74.8962 198.075 77.1553 199.417 78.8496C200.758 80.5438 202.662 81.3693 205.129 81.3693C206.254 81.3693 207.163 81.2824 207.855 81.0652C208.548 80.8914 209.11 80.6307 209.5 80.4135V75.6782L205.519 75.3741V71.4642H215.083V82.1947Z" fill="white"/>
<path d="M218.458 60.7772V57.3886H229.969V60.7772L226.983 61.3419V69.3789H238.365V61.3419L235.379 60.7772V57.3886H238.365H243.904H246.89V60.7772L243.904 61.3419V81.3693L246.89 81.934V85.2792H235.379V81.934L238.365 81.3693V73.6798H227.027V81.3693L230.013 81.934V85.2792H218.458V81.934L221.401 81.3693V61.3419L218.458 60.7772Z" fill="white"/>
<path d="M274.111 57.3886V64.8174H269.827L269.611 61.6895H264.504V81.3693L267.49 81.934V85.2792H255.935V81.934L258.921 81.3693V61.6895H253.815L253.598 64.8174H249.357V57.3886H274.111Z" fill="white"/>
<path d="M297.654 66.2945H293.456L292.72 62.4714C292.244 62.1673 291.509 61.9067 290.6 61.646C289.691 61.4288 288.696 61.2985 287.657 61.2985C286.142 61.2985 284.931 61.6026 284.108 62.2542C283.286 62.9059 282.853 63.7313 282.853 64.7739C282.853 65.7297 283.286 66.5117 284.152 67.1199C285.017 67.7281 286.532 68.3797 288.652 69.0314C291.725 69.9002 294.062 71.0298 295.62 72.42C297.221 73.8101 298 75.6782 298 77.9807C298 80.3701 297.048 82.2381 295.187 83.6283C293.283 85.0185 290.816 85.7136 287.744 85.7136C285.536 85.7136 283.546 85.366 281.771 84.671C279.997 83.9759 278.526 82.9767 277.314 81.7603V75.9389H281.642L282.247 79.8922C282.81 80.3701 283.589 80.7176 284.541 81.0217C285.493 81.3258 286.575 81.4562 287.744 81.4562C289.258 81.4562 290.427 81.1521 291.249 80.5004C292.028 79.8922 292.461 79.0233 292.461 77.9807C292.461 76.8946 292.071 76.0257 291.335 75.3741C290.556 74.7224 289.258 74.1142 287.354 73.5495C284.065 72.5937 281.555 71.4642 279.867 70.1175C278.179 68.7707 277.314 66.9895 277.314 64.7305C277.314 62.4714 278.266 60.6034 280.17 59.1698C282.074 57.7361 284.498 56.9976 287.354 56.9541C289.475 56.9541 291.422 57.3017 293.196 57.9533C294.971 58.605 296.442 59.4739 297.611 60.5599V66.2945H297.654Z" fill="white"/>
<path d="M23.5423 15.5527H20.4697V18.6372H23.5423V15.5527Z" fill="white"/>
<path d="M19.7772 15.5527H16.7046V18.6372H19.7772V15.5527Z" fill="white"/>
<path d="M31.1156 19.4191H28.043V22.5036H31.1156V19.4191Z" fill="white"/>
<path d="M27.3075 19.4191H24.2349V22.5036H27.3075V19.4191Z" fill="white"/>
<path d="M23.5423 19.4191H20.4697V22.5036H23.5423V19.4191Z" fill="white"/>
<path d="M19.7772 19.4191H16.7046V22.5036H19.7772V19.4191Z" fill="white"/>
<path d="M14.7137 19.4191H11.6411V22.5036H14.7137V19.4191Z" fill="white"/>
<path d="M3.07261 19.4191H0V22.5036H3.07261V19.4191Z" fill="white"/>
<path d="M31.1156 27.1955H28.043V30.28H31.1156V27.1955Z" fill="white"/>
<path d="M27.3075 27.1955H24.2349V30.28H27.3075V27.1955Z" fill="white"/>
<path d="M23.5423 27.1955H20.4697V30.28H23.5423V27.1955Z" fill="white"/>
<path d="M19.7772 27.1955H16.7046V30.28H19.7772V27.1955Z" fill="white"/>
<path d="M31.1156 38.8817H28.043V41.9662H31.1156V38.8817Z" fill="white"/>
<path d="M27.3075 38.8817H24.2349V41.9662H27.3075V38.8817Z" fill="white"/>
<path d="M31.1156 42.7482H28.043V45.8327H31.1156V42.7482Z" fill="white"/>
<path d="M23.5423 42.7482H20.4697V45.8327H23.5423V42.7482Z" fill="white"/>
<path d="M19.7772 42.7482H16.7046V45.8327H19.7772V42.7482Z" fill="white"/>
<path d="M31.1156 46.6581H28.043V49.7426H31.1156V46.6581Z" fill="white"/>
<path d="M27.3075 46.6581H24.2349V49.7426H27.3075V46.6581Z" fill="white"/>
<path d="M23.5423 46.6581H20.4697V49.7426H23.5423V46.6581Z" fill="white"/>
<path d="M27.3075 54.391H24.2349V57.4755H27.3075V54.391Z" fill="white"/>
<path d="M23.5423 54.391H20.4697V57.4755H23.5423V54.391Z" fill="white"/>
<path d="M31.1156 58.3009H28.043V61.3853H31.1156V58.3009Z" fill="white"/>
<path d="M27.3075 58.3009H24.2349V61.3853H27.3075V58.3009Z" fill="white"/>
<path d="M19.7772 58.3009H16.7046V61.3853H19.7772V58.3009Z" fill="white"/>
<path d="M23.5423 62.1673H20.4697V65.2518H23.5423V62.1673Z" fill="white"/>
<path d="M10.8622 62.1673H7.78955V65.2518H10.8622V62.1673Z" fill="white"/>
<path d="M31.1156 69.9437H28.043V73.0282H31.1156V69.9437Z" fill="white"/>
<path d="M27.3075 69.9437H24.2349V73.0282H27.3075V69.9437Z" fill="white"/>
<path d="M23.5423 69.9437H20.4697V73.0282H23.5423V69.9437Z" fill="white"/>
<path d="M19.7772 69.9437H16.7046V73.0282H19.7772V69.9437Z" fill="white"/>
<path d="M31.1156 73.8536H28.043V76.9381H31.1156V73.8536Z" fill="white"/>
<path d="M31.1156 81.5865H28.043V84.671H31.1156V81.5865Z" fill="white"/>
<path d="M27.3075 81.5865H24.2349V84.671H27.3075V81.5865Z" fill="white"/>
<path d="M23.5423 81.5865H20.4697V84.671H23.5423V81.5865Z" fill="white"/>
<path d="M19.7772 81.5865H16.7046V84.671H19.7772V81.5865Z" fill="white"/>
<path d="M27.3075 85.4964H24.2349V88.5808H27.3075V85.4964Z" fill="white"/>
<path d="M24.5375 93.2727H21.4648V96.3572H24.5375V93.2727Z" fill="white"/>
<path d="M28.3026 97.1392H25.23V100.224H28.3026V97.1392Z" fill="white"/>
<path d="M20.1668 97.1392H17.0942V100.224H20.1668V97.1392Z" fill="white"/>
<path d="M34.8807 42.7482H31.8081V45.8327H34.8807V42.7482Z" fill="white"/>
<path d="M34.8807 38.8817H31.8081V41.9662H34.8807V38.8817Z" fill="white"/>
<path d="M34.8807 66.0772H31.8081V69.1617H34.8807V66.0772Z" fill="white"/>
<path d="M34.8807 46.6581H31.8081V49.7426H34.8807V46.6581Z" fill="white"/>
<path d="M34.8807 62.1673H31.8081V65.2518H34.8807V62.1673Z" fill="white"/>
<path d="M34.8807 58.3009H31.8081V61.3853H34.8807V58.3009Z" fill="white"/>
<path d="M34.8807 54.391H31.8081V57.4755H34.8807V54.391Z" fill="white"/>
<path d="M34.8807 50.5245H31.8081V53.609H34.8807V50.5245Z" fill="white"/>
<path d="M38.6888 73.8536H35.6162V76.9381H38.6888V73.8536Z" fill="white"/>
<path d="M38.6888 69.9437H35.6162V73.0282H38.6888V69.9437Z" fill="white"/>
<path d="M34.8807 31.1054H31.8081V34.1899H34.8807V31.1054Z" fill="white"/>
<path d="M38.6888 66.0772H35.6162V69.1617H38.6888V66.0772Z" fill="white"/>
<path d="M34.8807 27.1955H31.8081V30.28H34.8807V27.1955Z" fill="white"/>
<path d="M38.6888 62.1673H35.6162V65.2518H38.6888V62.1673Z" fill="white"/>
<path d="M34.8807 15.5527H31.8081V18.6372H34.8807V15.5527Z" fill="white"/>
<path d="M34.8807 19.4191H31.8081V22.5036H34.8807V19.4191Z" fill="white"/>
<path d="M34.8807 14.7273V13.033L32.1976 14.0756C32.0678 14.1191 31.9379 14.206 31.8081 14.2928V14.7273H34.8807Z" fill="white"/>
<path d="M42.4538 10.1223L40.5063 10.8608H42.4538V10.1223Z" fill="white"/>
<path d="M38.6455 14.7273V11.6862H38.4292L35.6162 12.7723V14.7273H38.6455Z" fill="white"/>
<path d="M49.9842 93.2727H46.9116V93.7072C47.907 94.6195 48.9023 95.4883 49.9842 96.3138V93.2727Z" fill="white"/>
<path d="M46.2191 77.72H43.1465V80.8045H46.2191V77.72Z" fill="white"/>
<path d="M57.5575 97.1392H54.4849V99.7458C54.7012 99.9195 54.9176 100.05 55.134 100.224H57.5575V97.1392Z" fill="white"/>
<path d="M62.4478 104.916C63.3566 105.437 64.2221 105.958 65.1309 106.436V104.916H62.4478Z" fill="white"/>
<path d="M51.0225 97.1392C51.9313 97.8343 52.8401 98.5728 53.7921 99.2244V97.1392H51.0225Z" fill="white"/>
<path d="M38.6888 42.7482H35.6162V45.8327H38.6888V42.7482Z" fill="white"/>
<path d="M42.454 42.7482H39.3813V45.8327H42.454V42.7482Z" fill="white"/>
<path d="M42.454 46.6581H39.3813V49.7426H42.454V46.6581Z" fill="white"/>
<path d="M42.454 38.8817H39.3813V41.9662H42.454V38.8817Z" fill="white"/>
<path d="M42.454 58.3009H39.3813V61.3853H42.454V58.3009Z" fill="white"/>
<path d="M42.454 62.1673H39.3813V65.2518H42.454V62.1673Z" fill="white"/>
<path d="M42.454 54.391H39.3813V57.4755H42.454V54.391Z" fill="white"/>
<path d="M42.454 50.5245H39.3813V53.609H42.454V50.5245Z" fill="white"/>
<path d="M42.454 34.9718H39.3813V38.0563H42.454V34.9718Z" fill="white"/>
<path d="M42.454 11.6862H39.3813V14.7707H42.454V11.6862Z" fill="white"/>
<path d="M46.2191 85.4964H43.1465V88.5808H46.2191V85.4964Z" fill="white"/>
<path d="M46.2191 81.5865H43.1465V84.671H46.2191V81.5865Z" fill="white"/>
<path d="M42.454 27.1955H39.3813V30.28H42.454V27.1955Z" fill="white"/>
<path d="M42.454 31.1054H39.3813V34.1899H42.454V31.1054Z" fill="white"/>
<path d="M42.454 15.5527H39.3813V18.6372H42.454V15.5527Z" fill="white"/>
<path d="M42.454 19.4191H39.3813V22.5036H42.454V19.4191Z" fill="white"/>
<path d="M38.6888 34.9718H35.6162V38.0563H38.6888V34.9718Z" fill="white"/>
<path d="M38.6888 38.8817H35.6162V41.9662H38.6888V38.8817Z" fill="white"/>
<path d="M38.6888 31.1054H35.6162V34.1899H38.6888V31.1054Z" fill="white"/>
<path d="M46.2191 10.8608V8.64522L43.1465 9.81819V10.8608H46.2191Z" fill="white"/>
<path d="M38.6888 58.3009H35.6162V61.3853H38.6888V58.3009Z" fill="white"/>
<path d="M38.6888 54.391H35.6162V57.4755H38.6888V54.391Z" fill="white"/>
<path d="M38.6888 50.5245H35.6162V53.609H38.6888V50.5245Z" fill="white"/>
<path d="M38.6888 46.6581H35.6162V49.7426H38.6888V46.6581Z" fill="white"/>
<path d="M42.454 73.8536H39.3813V76.9381H42.454V73.8536Z" fill="white"/>
<path d="M42.454 77.72H39.3813V80.8045H42.454V77.72Z" fill="white"/>
<path d="M42.454 66.0772H39.3813V69.1617H42.454V66.0772Z" fill="white"/>
<path d="M42.454 69.9437H39.3813V73.0282H42.454V69.9437Z" fill="white"/>
<path d="M38.6888 27.1955H35.6162V30.28H38.6888V27.1955Z" fill="white"/>
<path d="M38.6888 19.4191H35.6162V22.5036H38.6888V19.4191Z" fill="white"/>
<path d="M38.6888 15.5527H35.6162V18.6372H38.6888V15.5527Z" fill="white"/>
<path d="M42.454 81.5865H39.3813V84.671H42.454V81.5865Z" fill="white"/>
<path d="M61.3226 101.049H58.25V102.352C59.2021 102.961 60.1109 103.569 61.063 104.134H61.2793V101.049H61.3226Z" fill="white"/>
<path d="M38.6888 93.2727H35.6162V96.3572H38.6888V93.2727Z" fill="white"/>
<path d="M38.6888 89.3628H35.6162V92.4473H38.6888V89.3628Z" fill="white"/>
<path d="M57.5572 101.049H56.3022H54.5278V104.09H57.5572V101.049Z" fill="white"/>
<path d="M46.2191 93.2727H43.1465V96.3572H46.2191V93.2727Z" fill="white"/>
<path d="M42.454 89.3628H39.3813V92.4473H42.454V89.3628Z" fill="white"/>
<path d="M49.9839 10.8608V7.77635H48.3827L46.9546 8.34112V10.8608H49.9839Z" fill="white"/>
<path d="M31.8081 69.9437V73.0282H32.6736H34.8807V69.9437H31.8081Z" fill="white"/>
<path d="M57.5575 6.95093V4.214L54.4849 5.38697V6.95093H57.5575Z" fill="white"/>
<path d="M53.7923 6.95093V5.69107L50.7197 6.86404V6.95093H53.7923Z" fill="white"/>
<path d="M61.3223 6.95093V3.9099H58.3795H58.293V6.95093H61.3223Z" fill="white"/>
<path d="M61.3226 2.73692L60.457 3.08447H61.3226V2.73692Z" fill="white"/>
<path d="M65.1307 3.08447V1.25986L62.0581 2.47627V3.08447H65.1307Z" fill="white"/>
<path d="M32.9766 73.8536H31.8081V76.8946H34.1883H34.8807V73.8536H32.9766Z" fill="white"/>
<path d="M34.5778 77.72H31.8081V80.8045H34.8807V78.3717V77.72H34.5778Z" fill="white"/>
<path d="M57.5575 34.9718H54.4849V38.0563H57.5575V34.9718Z" fill="white"/>
<path d="M61.3656 93.2727H58.293V96.3572H61.3656V93.2727Z" fill="white"/>
<path d="M61.3656 73.8536H58.293V76.9381H61.3656V73.8536Z" fill="white"/>
<path d="M61.3656 69.9437H58.293V73.0282H61.3656V69.9437Z" fill="white"/>
<path d="M61.3656 89.3628H58.293V92.4473H61.3656V89.3628Z" fill="white"/>
<path d="M61.3656 34.9718H58.293V38.0563H61.3656V34.9718Z" fill="white"/>
<path d="M61.3656 81.5865H58.293V84.671H61.3656V81.5865Z" fill="white"/>
<path d="M61.3656 85.4964H58.293V88.5808H61.3656V85.4964Z" fill="white"/>
<path d="M61.3656 77.72H58.293V80.8045H61.3656V77.72Z" fill="white"/>
<path d="M61.3656 42.7482H58.293V45.8327H61.3656V42.7482Z" fill="white"/>
<path d="M61.3656 62.1673H58.293V65.2518H61.3656V62.1673Z" fill="white"/>
<path d="M61.3656 38.8817H58.293V41.9662H61.3656V38.8817Z" fill="white"/>
<path d="M61.3656 46.6581H58.293V49.7426H61.3656V46.6581Z" fill="white"/>
<path d="M61.3656 58.3009H58.293V61.3853H61.3656V58.3009Z" fill="white"/>
<path d="M61.3656 54.391H58.293V57.4755H61.3656V54.391Z" fill="white"/>
<path d="M61.3656 50.5245H58.293V53.609H61.3656V50.5245Z" fill="white"/>
<path d="M61.3656 66.0772H58.293V69.1617H61.3656V66.0772Z" fill="white"/>
<path d="M57.5575 50.5245H54.4849V53.609H57.5575V50.5245Z" fill="white"/>
<path d="M57.5575 46.6581H54.4849V49.7426H57.5575V46.6581Z" fill="white"/>
<path d="M57.5575 54.391H54.4849V57.4755H57.5575V54.391Z" fill="white"/>
<path d="M57.5575 58.3009H54.4849V61.3853H57.5575V58.3009Z" fill="white"/>
<path d="M57.5575 38.8817H54.4849V41.9662H57.5575V38.8817Z" fill="white"/>
<path d="M57.5575 66.0772H54.4849V69.1617H57.5575V66.0772Z" fill="white"/>
<path d="M57.5575 62.1673H54.4849V65.2518H57.5575V62.1673Z" fill="white"/>
<path d="M57.5575 11.6862H54.4849V14.7707H57.5575V11.6862Z" fill="white"/>
<path d="M61.3656 97.1392H58.293V100.224H61.3656V97.1392Z" fill="white"/>
<path d="M57.5575 7.77635H54.4849V10.8608H57.5575V7.77635Z" fill="white"/>
<path d="M57.5575 15.5527H54.4849V18.6372H57.5575V15.5527Z" fill="white"/>
<path d="M57.5575 19.4191H54.4849V22.5036H57.5575V19.4191Z" fill="white"/>
<path d="M57.5575 27.1955H54.4849V30.28H57.5575V27.1955Z" fill="white"/>
<path d="M57.5575 23.329H54.4849V26.4135H57.5575V23.329Z" fill="white"/>
<path d="M57.5575 31.1054H54.4849V34.1899H57.5575V31.1054Z" fill="white"/>
<path d="M65.1307 81.5865H62.0581V84.671H65.1307V81.5865Z" fill="white"/>
<path d="M65.1307 50.5245H62.0581V53.609H65.1307V50.5245Z" fill="white"/>
<path d="M65.1307 42.7482H62.0581V45.8327H65.1307V42.7482Z" fill="white"/>
<path d="M65.1307 38.8817H62.0581V41.9662H65.1307V38.8817Z" fill="white"/>
<path d="M65.1307 62.1673H62.0581V65.2518H65.1307V62.1673Z" fill="white"/>
<path d="M65.1307 54.391H62.0581V57.4755H65.1307V54.391Z" fill="white"/>
<path d="M65.1307 34.9718H62.0581V38.0563H65.1307V34.9718Z" fill="white"/>
<path d="M65.1307 58.3009H62.0581V61.3853H65.1307V58.3009Z" fill="white"/>
<path d="M65.1307 3.9099H62.0581V6.99437H65.1307V3.9099Z" fill="white"/>
<path d="M65.1307 11.6862H62.0581V14.7707H65.1307V11.6862Z" fill="white"/>
<path d="M65.1307 7.77635H62.0581V10.8608H65.1307V7.77635Z" fill="white"/>
<path d="M65.1307 66.0772H62.0581V69.1617H65.1307V66.0772Z" fill="white"/>
<path d="M65.1307 31.1054H62.0581V34.1899H65.1307V31.1054Z" fill="white"/>
<path d="M65.1307 23.329H62.0581V26.4135H65.1307V23.329Z" fill="white"/>
<path d="M65.1307 19.4191H62.0581V22.5036H65.1307V19.4191Z" fill="white"/>
<path d="M61.3656 31.1054H58.293V34.1899H61.3656V31.1054Z" fill="white"/>
<path d="M65.1307 15.5527H62.0581V18.6372H65.1307V15.5527Z" fill="white"/>
<path d="M61.3656 11.6862H58.293V14.7707H61.3656V11.6862Z" fill="white"/>
<path d="M61.3656 7.77635H58.293V10.8608H61.3656V7.77635Z" fill="white"/>
<path d="M61.3656 15.5527H58.293V18.6372H61.3656V15.5527Z" fill="white"/>
<path d="M65.1307 101.049H62.0581V104.134H65.1307V101.049Z" fill="white"/>
<path d="M61.3656 27.1955H58.293V30.28H61.3656V27.1955Z" fill="white"/>
<path d="M61.3656 23.329H58.293V26.4135H61.3656V23.329Z" fill="white"/>
<path d="M65.1307 69.9437H62.0581V73.0282H65.1307V69.9437Z" fill="white"/>
<path d="M61.3656 19.4191H58.293V22.5036H61.3656V19.4191Z" fill="white"/>
<path d="M57.5575 69.9437H54.4849V73.0282H57.5575V69.9437Z" fill="white"/>
<path d="M65.1307 77.72H62.0581V80.8045H65.1307V77.72Z" fill="white"/>
<path d="M65.1307 73.8536H62.0581V76.9381H65.1307V73.8536Z" fill="white"/>
<path d="M65.1307 89.3628H62.0581V92.4473H65.1307V89.3628Z" fill="white"/>
<path d="M65.1307 85.4964H62.0581V88.5808H65.1307V85.4964Z" fill="white"/>
<path d="M65.1307 93.2727H62.0581V96.3572H65.1307V93.2727Z" fill="white"/>
<path d="M65.1307 97.1392H62.0581V100.224H65.1307V97.1392Z" fill="white"/>
<path d="M53.7923 31.1054H50.7197V34.1899H53.7923V31.1054Z" fill="white"/>
<path d="M50.0272 69.9437H46.9546V73.0282H50.0272V69.9437Z" fill="white"/>
<path d="M50.0272 73.8536H46.9546V76.9381H50.0272V73.8536Z" fill="white"/>
<path d="M50.0272 66.0772H46.9546V69.1617H50.0272V66.0772Z" fill="white"/>
<path d="M50.0272 81.5865H46.9546V84.671H50.0272V81.5865Z" fill="white"/>
<path d="M50.0272 85.4964H46.9546V88.5808H50.0272V85.4964Z" fill="white"/>
<path d="M50.0272 77.72H46.9546V80.8045H50.0272V77.72Z" fill="white"/>
<path d="M50.0272 89.3628H46.9546V92.4473H50.0272V89.3628Z" fill="white"/>
<path d="M50.0272 62.1673H46.9546V65.2518H50.0272V62.1673Z" fill="white"/>
<path d="M50.0272 34.9718H46.9546V38.0563H50.0272V34.9718Z" fill="white"/>
<path d="M57.5575 73.8536H54.4849V76.9381H57.5575V73.8536Z" fill="white"/>
<path d="M50.0272 38.8817H46.9546V41.9662H50.0272V38.8817Z" fill="white"/>
<path d="M50.0272 50.5245H46.9546V53.609H50.0272V50.5245Z" fill="white"/>
<path d="M50.0272 42.7482H46.9546V45.8327H50.0272V42.7482Z" fill="white"/>
<path d="M50.0272 58.3009H46.9546V61.3853H50.0272V58.3009Z" fill="white"/>
<path d="M50.0272 46.6581H46.9546V49.7426H50.0272V46.6581Z" fill="white"/>
<path d="M46.2191 50.5245H43.1465V53.609H46.2191V50.5245Z" fill="white"/>
<path d="M46.2191 54.391H43.1465V57.4755H46.2191V54.391Z" fill="white"/>
<path d="M46.2191 58.3009H43.1465V61.3853H46.2191V58.3009Z" fill="white"/>
<path d="M46.2191 46.6581H43.1465V49.7426H46.2191V46.6581Z" fill="white"/>
<path d="M50.0272 27.1955H46.9546V30.28H50.0272V27.1955Z" fill="white"/>
<path d="M46.2191 11.6862H43.1465V14.7707H46.2191V11.6862Z" fill="white"/>
<path d="M46.2191 69.9437H43.1465V73.0282H46.2191V69.9437Z" fill="white"/>
<path d="M46.2191 66.0772H43.1465V69.1617H46.2191V66.0772Z" fill="white"/>
<path d="M46.2191 62.1673H43.1465V65.2518H46.2191V62.1673Z" fill="white"/>
<path d="M46.2191 23.329H43.1465V26.4135H46.2191V23.329Z" fill="white"/>
<path d="M46.2191 19.4191H43.1465V22.5036H46.2191V19.4191Z" fill="white"/>
<path d="M46.2191 15.5527H43.1465V18.6372H46.2191V15.5527Z" fill="white"/>
<path d="M46.2191 38.8817H43.1465V41.9662H46.2191V38.8817Z" fill="white"/>
<path d="M46.2191 42.7482H43.1465V45.8327H46.2191V42.7482Z" fill="white"/>
<path d="M46.2191 34.9718H43.1465V38.0563H46.2191V34.9718Z" fill="white"/>
<path d="M46.2191 27.1955H43.1465V30.28H46.2191V27.1955Z" fill="white"/>
<path d="M50.0272 31.1054H46.9546V34.1899H50.0272V31.1054Z" fill="white"/>
<path d="M53.7923 23.329H50.7197V26.4135H53.7923V23.329Z" fill="white"/>
<path d="M53.7923 27.1955H50.7197V30.28H53.7923V27.1955Z" fill="white"/>
<path d="M53.7923 19.4191H50.7197V22.5036H53.7923V19.4191Z" fill="white"/>
<path d="M53.7923 38.8817H50.7197V41.9662H53.7923V38.8817Z" fill="white"/>
<path d="M53.7923 42.7482H50.7197V45.8327H53.7923V42.7482Z" fill="white"/>
<path d="M46.2191 73.8536H43.1465V76.9381H46.2191V73.8536Z" fill="white"/>
<path d="M53.7923 34.9718H50.7197V38.0563H53.7923V34.9718Z" fill="white"/>
<path d="M53.7923 15.5527H50.7197V18.6372H53.7923V15.5527Z" fill="white"/>
<path d="M57.5575 81.5865H54.4849V84.671H57.5575V81.5865Z" fill="white"/>
<path d="M57.5575 77.72H54.4849V80.8045H57.5575V77.72Z" fill="white"/>
<path d="M57.5575 85.4964H54.4849V88.5808H57.5575V85.4964Z" fill="white"/>
<path d="M53.7923 7.77635H50.7197V10.8608H53.7923V7.77635Z" fill="white"/>
<path d="M53.7923 11.6862H50.7197V14.7707H53.7923V11.6862Z" fill="white"/>
<path d="M57.5575 93.2727H54.4849V96.3572H57.5575V93.2727Z" fill="white"/>
<path d="M57.5575 89.3628H54.4849V92.4473H57.5575V89.3628Z" fill="white"/>
<path d="M53.7923 58.3009H50.7197V61.3853H53.7923V58.3009Z" fill="white"/>
<path d="M53.7923 81.5865H50.7197V84.671H53.7923V81.5865Z" fill="white"/>
<path d="M53.7923 85.4964H50.7197V88.5808H53.7923V85.4964Z" fill="white"/>
<path d="M53.7923 93.2727H50.7197V96.3572H53.7923V93.2727Z" fill="white"/>
<path d="M53.7923 89.3628H50.7197V92.4473H53.7923V89.3628Z" fill="white"/>
<path d="M50.0272 19.4191H46.9546V22.5036H50.0272V19.4191Z" fill="white"/>
<path d="M50.0272 11.6862H46.9546V14.7707H50.0272V11.6862Z" fill="white"/>
<path d="M50.0272 15.5527H46.9546V18.6372H50.0272V15.5527Z" fill="white"/>
<path d="M53.7923 66.0772H50.7197V69.1617H53.7923V66.0772Z" fill="white"/>
<path d="M53.7923 54.391H50.7197V57.4755H53.7923V54.391Z" fill="white"/>
<path d="M50.0272 23.329H46.9546V26.4135H50.0272V23.329Z" fill="white"/>
<path d="M53.7923 50.5245H50.7197V53.609H53.7923V50.5245Z" fill="white"/>
<path d="M53.7923 46.6581H50.7197V49.7426H53.7923V46.6581Z" fill="white"/>
<path d="M53.7923 69.9437H50.7197V73.0282H53.7923V69.9437Z" fill="white"/>
<path d="M53.7923 77.72H50.7197V80.8045H53.7923V77.72Z" fill="white"/>
<path d="M53.7923 62.1673H50.7197V65.2518H53.7923V62.1673Z" fill="white"/>
<path d="M23.5423 15.5527H20.4697V18.6372H23.5423V15.5527Z" fill="white"/>
<path d="M19.7772 15.5527H16.7046V18.6372H19.7772V15.5527Z" fill="white"/>
<path d="M31.1156 19.4191H28.043V22.5036H31.1156V19.4191Z" fill="white"/>
<path d="M27.3075 19.4191H24.2349V22.5036H27.3075V19.4191Z" fill="white"/>
<path d="M23.5423 19.4191H20.4697V22.5036H23.5423V19.4191Z" fill="white"/>
<path d="M19.7772 19.4191H16.7046V22.5036H19.7772V19.4191Z" fill="white"/>
<path d="M14.7137 19.4191H11.6411V22.5036H14.7137V19.4191Z" fill="white"/>
<path d="M3.07261 19.4191H0V22.5036H3.07261V19.4191Z" fill="white"/>
<path d="M31.1156 27.1955H28.043V30.28H31.1156V27.1955Z" fill="white"/>
<path d="M27.3075 27.1955H24.2349V30.28H27.3075V27.1955Z" fill="white"/>
<path d="M23.5423 27.1955H20.4697V30.28H23.5423V27.1955Z" fill="white"/>
<path d="M19.7772 27.1955H16.7046V30.28H19.7772V27.1955Z" fill="white"/>
<path d="M31.1156 38.8817H28.043V41.9662H31.1156V38.8817Z" fill="white"/>
<path d="M27.3075 38.8817H24.2349V41.9662H27.3075V38.8817Z" fill="white"/>
<path d="M31.1156 42.7482H28.043V45.8327H31.1156V42.7482Z" fill="white"/>
<path d="M23.5423 42.7482H20.4697V45.8327H23.5423V42.7482Z" fill="white"/>
<path d="M19.7772 42.7482H16.7046V45.8327H19.7772V42.7482Z" fill="white"/>
<path d="M31.1156 46.6581H28.043V49.7426H31.1156V46.6581Z" fill="white"/>
<path d="M27.3075 46.6581H24.2349V49.7426H27.3075V46.6581Z" fill="white"/>
<path d="M23.5423 46.6581H20.4697V49.7426H23.5423V46.6581Z" fill="white"/>
<path d="M27.3075 54.391H24.2349V57.4755H27.3075V54.391Z" fill="white"/>
<path d="M23.5423 54.391H20.4697V57.4755H23.5423V54.391Z" fill="white"/>
<path d="M31.1156 58.3009H28.043V61.3853H31.1156V58.3009Z" fill="white"/>
<path d="M27.3075 58.3009H24.2349V61.3853H27.3075V58.3009Z" fill="white"/>
<path d="M19.7772 58.3009H16.7046V61.3853H19.7772V58.3009Z" fill="white"/>
<path d="M23.5423 62.1673H20.4697V65.2518H23.5423V62.1673Z" fill="white"/>
<path d="M10.8622 62.1673H7.78955V65.2518H10.8622V62.1673Z" fill="white"/>
<path d="M31.1156 69.9437H28.043V73.0282H31.1156V69.9437Z" fill="white"/>
<path d="M27.3075 69.9437H24.2349V73.0282H27.3075V69.9437Z" fill="white"/>
<path d="M23.5423 69.9437H20.4697V73.0282H23.5423V69.9437Z" fill="white"/>
<path d="M19.7772 69.9437H16.7046V73.0282H19.7772V69.9437Z" fill="white"/>
<path d="M31.1156 73.8536H28.043V76.9381H31.1156V73.8536Z" fill="white"/>
<path d="M31.1156 81.5865H28.043V84.671H31.1156V81.5865Z" fill="white"/>
<path d="M27.3075 81.5865H24.2349V84.671H27.3075V81.5865Z" fill="white"/>
<path d="M23.5423 81.5865H20.4697V84.671H23.5423V81.5865Z" fill="white"/>
<path d="M19.7772 81.5865H16.7046V84.671H19.7772V81.5865Z" fill="white"/>
<path d="M46.0458 89.3628H42.9731V92.4473H46.0458V89.3628Z" fill="white"/>
<path d="M38.7753 81.3258H35.4863V84.6275H38.7753V81.3258Z" fill="white"/>
<path d="M38.6459 85.3226H35.5732V88.4071H38.6459V85.3226Z" fill="white"/>
<path d="M34.9671 85.3226H31.8945V88.4071H34.9671V85.3226Z" fill="white"/>
<path d="M91.8752 89.4063C98.9292 81.7168 103.733 72.5068 103.733 61.4288V15.5093C103.733 14.5101 103.04 13.6846 102.132 13.3805L66.1259 0.0868866C66.0393 0.0434433 65.9528 0.0434433 65.8662 0V108C66.2124 108 66.6019 107.913 66.9048 107.739C75.8197 102.917 84.951 96.922 91.8752 89.4063Z" fill="white"/>
</g>
<defs>
<clipPath id="clip0_1235_5511">
<rect width="298" height="108" fill="white"/>
</clipPath>
</defs>
</svg>
