<svg width="134" height="140" viewBox="0 0 134 140" fill="none" xmlns="http://www.w3.org/2000/svg">
<g clip-path="url(#clip0_984_16)">
<path d="M36.19 16.01C34.457 16.0071 32.7766 16.6053 31.4352 17.7026C30.0939 18.7998 29.1744 20.3283 28.8337 22.0275C28.493 23.7267 28.7521 25.4914 29.5667 27.021C30.3814 28.5506 31.7012 29.7503 33.3013 30.4158C34.9015 31.0813 36.6829 31.1713 38.342 30.6705C40.0011 30.1696 41.4352 29.109 42.3998 27.6693C43.3645 26.2296 43.8001 24.5 43.6324 22.7751C43.4647 21.0502 42.7039 19.4369 41.4799 18.21C40.7863 17.5133 39.962 16.9602 39.0543 16.5827C38.1465 16.2052 37.1732 16.0106 36.19 16.01ZM36.19 25.83C35.6533 25.8303 35.133 25.6444 34.718 25.304C34.3029 24.9637 34.0187 24.4899 33.9138 23.9635C33.8088 23.4371 33.8897 22.8906 34.1425 22.4172C34.3954 21.9437 34.8045 21.5725 35.3004 21.367C35.7962 21.1614 36.3481 21.1341 36.8618 21.2897C37.3755 21.4453 37.8193 21.7743 38.1176 22.2205C38.416 22.6667 38.5503 23.2025 38.4979 23.7367C38.4454 24.2709 38.2095 24.7704 37.83 25.15C37.3927 25.5815 36.8043 25.8255 36.19 25.83Z" fill="#333333"/>
<path d="M104.43 20.9H65.3101C64.6725 20.9688 64.0827 21.2708 63.6543 21.748C63.2259 22.2251 62.9889 22.8437 62.9889 23.485C62.9889 24.1263 63.2259 24.745 63.6543 25.2221C64.0827 25.6993 64.6725 26.0013 65.3101 26.07H104.43C105.068 26.0013 105.657 25.6993 106.086 25.2221C106.514 24.745 106.751 24.1263 106.751 23.485C106.751 22.8437 106.514 22.2251 106.086 21.748C105.657 21.2708 105.068 20.9688 104.43 20.9Z" fill="#333333"/>
<path d="M28.7001 66.11C28.6995 67.8432 29.3 69.5229 30.3993 70.8629C31.4985 72.2029 33.0284 73.1202 34.7283 73.4584C36.4281 73.7967 38.1927 73.535 39.7212 72.7178C41.2497 71.9007 42.4475 70.5788 43.1105 68.9774C43.7734 67.376 43.8605 65.5943 43.3568 63.9359C42.8532 62.2775 41.7899 60.8451 40.3484 59.8829C38.9069 58.9206 37.1763 58.4881 35.4515 58.6589C33.7268 58.8298 32.1147 59.5936 30.89 60.82C29.4911 62.2256 28.704 64.1269 28.7001 66.11ZM38.51 66.11C38.5102 66.6467 38.3244 67.167 37.984 67.582C37.6437 67.9971 37.17 68.2813 36.6436 68.3862C36.1172 68.4911 35.5706 68.4103 35.0972 68.1574C34.6237 67.9046 34.2526 67.4954 34.047 66.9996C33.8414 66.5038 33.8141 65.952 33.9697 65.4383C34.1254 64.9246 34.4543 64.4807 34.9005 64.1824C35.3467 63.884 35.8826 63.7496 36.4167 63.8021C36.9509 63.8545 37.4504 64.0906 37.8301 64.47C38.0464 64.6847 38.2179 64.9402 38.3346 65.2217C38.4513 65.5033 38.511 65.8052 38.51 66.11Z" fill="#333333"/>
<path d="M77.57 127.06H21.32C15.32 127.06 9.86999 123.51 6.88999 117.76C5.42127 114.882 4.6555 111.696 4.6555 108.465C4.6555 105.234 5.42127 102.048 6.88999 99.17C9.88999 93.41 15.37 89.87 21.32 89.87H72.02C72.6489 89.7915 73.2276 89.486 73.6471 89.0109C74.0666 88.5358 74.2982 87.9238 74.2982 87.29C74.2982 86.6562 74.0666 86.0442 73.6471 85.5691C73.2276 85.0939 72.6489 84.7885 72.02 84.71H21.32C15.32 84.71 9.86999 81.16 6.88999 75.41C5.42127 72.5317 4.6555 69.3463 4.6555 66.115C4.6555 62.8836 5.42127 59.6983 6.88999 56.82C9.88999 51.06 15.37 47.52 21.32 47.52H109.52C112.719 47.4985 115.842 48.4929 118.44 50.36C121.172 52.3287 123.288 55.034 124.54 58.16C124.644 58.4572 124.809 58.7289 125.025 58.9573C125.242 59.1856 125.505 59.3653 125.796 59.4845C126.087 59.6036 126.4 59.6595 126.715 59.6484C127.029 59.6373 127.338 59.5594 127.62 59.42C128.197 59.1126 128.631 58.5924 128.83 57.97C129.042 57.3158 129.017 56.6078 128.76 55.97C126.868 51.2872 123.46 47.3748 119.08 44.86C122.023 43.1484 124.558 40.816 126.507 38.0251C128.457 35.2343 129.775 32.0521 130.37 28.7C131.054 25.262 131.031 21.7205 130.3 18.292C129.569 14.8635 128.147 11.6201 126.12 8.75998C124.254 6.07863 121.773 3.88261 118.886 2.35522C115.998 0.827844 112.787 0.0134278 109.52 -0.0200195H21.32C18.0558 0.0229474 14.8489 0.843727 11.9654 2.37418C9.08193 3.90463 6.60488 6.10064 4.73997 8.78C2.71692 11.6402 1.29624 14.8817 0.563943 18.3076C-0.168352 21.7336 -0.196997 25.2727 0.479959 28.71C1.07337 32.0601 2.38536 35.242 4.32566 38.0368C6.26596 40.8316 8.78866 43.173 11.7201 44.9C6.86476 47.714 3.21053 52.2115 1.45005 57.54C-0.450151 63.0679 -0.450151 69.0721 1.45005 74.6C3.21006 79.9313 6.8641 84.4321 11.7201 87.25C8.78578 88.976 6.26103 91.3183 4.32041 94.1153C2.3798 96.9123 1.06948 100.097 0.479959 103.45C-0.197584 106.887 -0.169348 110.426 0.562966 113.853C1.29528 117.279 2.7164 120.52 4.73997 123.38C6.60312 126.061 9.0797 128.258 11.9636 129.789C14.8475 131.32 18.0554 132.139 21.32 132.18H77.57C78.2151 132.123 78.8155 131.827 79.2528 131.349C79.6901 130.872 79.9326 130.248 79.9326 129.6C79.9326 128.952 79.6901 128.328 79.2528 127.851C78.8155 127.373 78.2151 127.077 77.57 127.02V127.06ZM4.66001 23.76C4.62258 18.9284 6.36301 14.2517 9.55003 10.62C11.015 8.93097 12.8216 7.57187 14.8504 6.63242C16.8793 5.69296 19.0844 5.19451 21.32 5.16998H109.52C115.52 5.16998 120.95 8.80001 123.9 14.57C125.348 17.4602 126.092 20.6519 126.071 23.8844C126.05 27.1169 125.265 30.2987 123.78 33.17C120.78 38.9 115.24 42.4 109.29 42.35H21.29C19.0527 42.3263 16.8459 41.8282 14.8153 40.8887C12.7847 39.9493 10.9765 38.5898 9.50999 36.9C6.3246 33.2674 4.58441 28.5913 4.61997 23.76H4.66001Z" fill="#333333"/>
<path d="M28.7001 108.46C28.6995 110.193 29.3 111.873 30.3993 113.213C31.4985 114.553 33.0284 115.47 34.7283 115.808C36.4281 116.147 38.1927 115.885 39.7212 115.068C41.2497 114.251 42.4475 112.929 43.1105 111.327C43.7734 109.726 43.8605 107.944 43.3568 106.286C42.8532 104.628 41.7899 103.195 40.3484 102.233C38.9069 101.271 37.1763 100.838 35.4515 101.009C33.7268 101.18 32.1147 101.944 30.89 103.17C29.4911 104.576 28.704 106.477 28.7001 108.46ZM38.51 108.46C38.5102 108.997 38.3244 109.517 37.984 109.932C37.6437 110.347 37.17 110.631 36.6436 110.736C36.1172 110.841 35.5706 110.76 35.0972 110.507C34.6237 110.255 34.2526 109.845 34.047 109.35C33.8414 108.854 33.8141 108.302 33.9697 107.788C34.1254 107.275 34.4543 106.831 34.9005 106.532C35.3467 106.234 35.8826 106.1 36.4167 106.152C36.9509 106.204 37.4504 106.441 37.8301 106.82C38.2634 107.256 38.5076 107.845 38.51 108.46Z" fill="#333333"/>
<path d="M119.75 69.42C115.561 68.7449 111.594 67.0786 108.18 64.5601C104.762 67.0791 100.792 68.7453 96.6 69.42L82.7101 71.5301V100.2C82.7554 107.561 84.6317 114.795 88.17 121.25C91.5344 127.428 96.5334 132.562 102.62 136.09L108.13 139.45L113.69 136.09C119.774 132.562 124.77 127.428 128.13 121.25C131.673 114.797 133.55 107.562 133.59 100.2V71.5301L119.75 69.42ZM123.85 92.2701L106.91 112.16C106.603 112.532 106.218 112.833 105.783 113.042C105.348 113.251 104.873 113.363 104.39 113.37C103.956 113.364 103.528 113.273 103.13 113.102C102.732 112.93 102.372 112.681 102.07 112.37L92.5801 102.55C92.2158 102.057 91.9642 101.489 91.8433 100.888C91.7223 100.287 91.7349 99.666 91.88 99.0701C92.0034 98.4896 92.2639 97.9471 92.6396 97.4879C93.0154 97.0286 93.4955 96.6659 94.04 96.4301C94.56 96.2156 95.1276 96.1433 95.6847 96.2206C96.2418 96.298 96.7682 96.5221 97.2101 96.8701L104.15 104.08L118.69 86.98C118.984 86.6077 119.353 86.302 119.774 86.0831C120.194 85.8641 120.657 85.737 121.13 85.7101C121.602 85.6944 122.071 85.7811 122.506 85.9641C122.941 86.1471 123.331 86.422 123.65 86.7701C124.342 87.5155 124.731 88.4928 124.74 89.51C124.758 90.5308 124.402 91.5229 123.74 92.3L123.85 92.2701Z" fill="#333333"/>
</g>
<defs>
<clipPath id="clip0_984_16">
<rect width="133.59" height="139.45" fill="white"/>
</clipPath>
</defs>
</svg>
