<svg width="113" height="143" viewBox="0 0 113 143" fill="none" xmlns="http://www.w3.org/2000/svg">
<g clip-path="url(#clip0_984_33)">
<path d="M46.61 82.9099H81.49C81.7268 82.9026 81.9586 82.8401 82.167 82.7272C82.3753 82.6143 82.5544 82.4543 82.6899 82.2599C83.0224 81.8047 83.1979 81.2536 83.1899 80.6899V61.7799C83.1993 61.216 83.0237 60.6645 82.6899 60.2099C82.5544 60.0155 82.3753 59.8556 82.167 59.7427C81.9586 59.6298 81.7268 59.5672 81.49 59.5599H46.61C46.0927 59.6345 45.6253 59.9086 45.3076 60.3235C44.9899 60.7384 44.8471 61.2612 44.9099 61.7799V80.67C44.9019 81.2337 45.0774 81.7846 45.4099 82.2399C45.5432 82.438 45.7214 82.6019 45.9299 82.7183C46.1384 82.8347 46.3714 82.9004 46.61 82.9099Z" fill="#333333"/>
<path d="M81.6599 98H46.4399C45.9227 98.0746 45.4553 98.3487 45.1376 98.7635C44.8199 99.1784 44.6771 99.7012 44.74 100.22V122.44C44.7306 123.004 44.9062 123.555 45.24 124.01C45.3755 124.204 45.5546 124.364 45.7629 124.477C45.9713 124.59 46.2031 124.653 46.4399 124.66H81.6599C81.8967 124.653 82.1287 124.59 82.337 124.477C82.5454 124.364 82.7245 124.204 82.86 124.01C83.1938 123.555 83.3694 123.004 83.36 122.44V100.22C83.3679 99.6563 83.1924 99.1053 82.86 98.65C82.7245 98.4556 82.5454 98.2956 82.337 98.1828C82.1287 98.0699 81.8967 98.0073 81.6599 98ZM79.96 120.22H48.14V102.44H79.96V120.22Z" fill="#333333"/>
<path d="M81.6599 18H46.4399C45.9227 18.0746 45.4553 18.3487 45.1376 18.7635C44.8199 19.1784 44.6771 19.7012 44.74 20.22V42.44C44.732 43.0068 44.9074 43.561 45.24 44.02C45.3771 44.2127 45.5565 44.3715 45.7645 44.4842C45.9725 44.5969 46.2036 44.6604 46.4399 44.67H81.6599C81.8963 44.6604 82.1273 44.5969 82.3353 44.4842C82.5433 44.3715 82.7228 44.2127 82.86 44.02C83.1926 43.561 83.3679 43.0068 83.36 42.44V20.22C83.3679 19.6563 83.1924 19.1053 82.86 18.65C82.7245 18.4556 82.5454 18.2956 82.337 18.1828C82.1287 18.0699 81.8967 18.0073 81.6599 18ZM79.96 40.22H48.14V22.45H79.96V40.22Z" fill="#333333"/>
<path d="M36.75 79.55H1.86998C1.3508 79.6246 0.881682 79.9001 0.563702 80.3172C0.245721 80.7343 0.104261 81.2597 0.169903 81.78V100.67C0.161951 101.234 0.337433 101.785 0.669903 102.24C0.807062 102.433 0.986561 102.592 1.19456 102.704C1.40256 102.817 1.63362 102.88 1.86998 102.89H36.75C36.9863 102.88 37.2174 102.817 37.4254 102.704C37.6334 102.592 37.8128 102.433 37.9499 102.24C38.2824 101.785 38.4579 101.234 38.4499 100.67V81.78C38.4594 81.2161 38.2837 80.6646 37.9499 80.21C37.8149 80.0143 37.6363 79.8528 37.428 79.7383C37.2197 79.6237 36.9875 79.5593 36.75 79.55Z" fill="#333333"/>
<path d="M36.9199 38H1.69994C1.18272 38.0746 0.715287 38.3487 0.397574 38.7635C0.0798611 39.1784 -0.062843 39.7012 -8.89041e-06 40.22V62.44C-0.0079657 63.0068 0.167411 63.561 0.499991 64.02C0.637151 64.2127 0.816527 64.3715 1.02453 64.4842C1.23253 64.5969 1.46358 64.6604 1.69994 64.67H36.9199C37.1563 64.6604 37.3873 64.5969 37.5953 64.4842C37.8033 64.3715 37.9828 64.2127 38.12 64.02C38.4526 63.561 38.6279 63.0068 38.62 62.44V40.22C38.6279 39.6563 38.4525 39.1053 38.12 38.65C37.9845 38.4556 37.8054 38.2956 37.597 38.1828C37.3887 38.0699 37.1568 38.0073 36.9199 38ZM35.22 60.22H3.4099V42.44H35.22V60.22Z" fill="#333333"/>
<path d="M111.22 69.16L106.78 65.58C105.656 64.7116 104.746 63.5961 104.122 62.3198C103.497 61.0436 103.175 59.6408 103.18 58.22V15.56C103.177 11.434 101.537 7.47783 98.6196 4.56033C95.7021 1.64284 91.746 0.00264909 87.62 0C87.0557 0.0378539 86.5268 0.288739 86.1405 0.701843C85.7542 1.11495 85.5392 1.65941 85.5392 2.22501C85.5392 2.7906 85.7542 3.33506 86.1405 3.74817C86.5268 4.16127 87.0557 4.41216 87.62 4.45001C89.0798 4.4487 90.5256 4.73507 91.8746 5.29282C93.2237 5.85056 94.4497 6.66871 95.4824 7.7005C96.5151 8.73229 97.3344 9.95751 97.8933 11.3061C98.4523 12.6547 98.74 14.1002 98.74 15.56V58.22C98.7235 60.3112 99.1895 62.378 100.102 64.2598C101.014 66.1416 102.348 67.7876 104 69.07L106.22 70.91L104 72.71C102.345 73.9944 101.01 75.6437 100.097 77.5292C99.185 79.4147 98.7204 81.4855 98.74 83.58V126.91C98.74 128.37 98.4523 129.815 97.8933 131.164C97.3344 132.513 96.5151 133.738 95.4824 134.77C94.4497 135.801 93.2237 136.619 91.8746 137.177C90.5256 137.735 89.0798 138.021 87.62 138.02C87.0557 138.058 86.5268 138.309 86.1405 138.722C85.7542 139.135 85.5392 139.679 85.5392 140.245C85.5392 140.811 85.7542 141.355 86.1405 141.768C86.5268 142.181 87.0557 142.432 87.62 142.47C91.739 142.457 95.6849 140.812 98.5938 137.896C101.503 134.979 103.137 131.029 103.14 126.91V83.56C103.134 82.1361 103.455 80.7299 104.079 79.4502C104.704 78.1704 105.614 77.0515 106.74 76.18L111.18 72.62C111.442 72.4141 111.654 72.1515 111.8 71.8518C111.945 71.5521 112.021 71.2232 112.021 70.89C112.021 70.5568 111.945 70.2279 111.8 69.9282C111.654 69.6285 111.442 69.3659 111.18 69.16H111.22Z" fill="#333333"/>
</g>
<defs>
<clipPath id="clip0_984_33">
<rect width="112.02" height="142.44" fill="white"/>
</clipPath>
</defs>
</svg>
