<svg width="100" height="143" viewBox="0 0 100 143" fill="none" xmlns="http://www.w3.org/2000/svg">
<g clip-path="url(#clip0_984_23)">
<path d="M97.03 0H7.87C5.79319 0.0334826 3.81076 0.873386 2.34204 2.3421C0.873325 3.81082 0.0334826 5.79319 0 7.87V134.78C0.0334826 136.857 0.873325 138.839 2.34204 140.308C3.81076 141.777 5.79319 142.617 7.87 142.65H91.47C93.5883 142.618 95.6076 141.748 97.0848 140.229C98.5621 138.711 99.3767 136.668 99.35 134.55V2.32001C99.35 1.7047 99.1056 1.11459 98.6705 0.679504C98.2355 0.24442 97.6453 0 97.03 0ZM91.47 138H7.87C7.01708 137.98 6.20471 137.632 5.60144 137.029C4.99817 136.425 4.65032 135.613 4.63 134.76V7.87C4.65032 7.01708 4.99817 6.20474 5.60144 5.60147C6.20471 4.9982 7.01708 4.65032 7.87 4.63H94.71V40.06H13.4299C13.1131 40.0392 12.7954 40.0836 12.4965 40.1905C12.1975 40.2974 11.9238 40.4645 11.692 40.6815C11.4603 40.8986 11.2755 41.1608 11.1492 41.4521C11.0229 41.7434 10.9578 42.0575 10.9578 42.375C10.9578 42.6925 11.0229 43.0066 11.1492 43.2979C11.2755 43.5892 11.4603 43.8514 11.692 44.0685C11.9238 44.2855 12.1975 44.4526 12.4965 44.5595C12.7954 44.6664 13.1131 44.7108 13.4299 44.69H94.71V134.55C94.726 134.991 94.6548 135.43 94.5005 135.844C94.3462 136.257 94.1118 136.636 93.8108 136.958C93.5098 137.28 93.148 137.54 92.7463 137.722C92.3446 137.905 91.9108 138.006 91.47 138.02V138Z" fill="#333333"/>
<path d="M22.46 55.58C20.7663 55.5827 19.1112 56.0867 17.7034 57.0284C16.2956 57.9701 15.1981 59.3075 14.549 60.8719C13.8999 62.4363 13.7283 64.1579 14.056 65.8196C14.3836 67.4814 15.1958 69.009 16.3901 70.21C17.3863 71.2062 18.6128 71.9415 19.961 72.3506C21.3092 72.7598 22.7374 72.8302 24.1193 72.5558C25.5012 72.2813 26.7942 71.6704 27.8837 70.777C28.9732 69.8837 29.8256 68.7355 30.3655 67.4342C30.9055 66.1329 31.1162 64.7185 30.9792 63.3163C30.8421 61.914 30.3615 60.5672 29.5798 59.3951C28.7981 58.2229 27.7395 57.2615 26.4976 56.5961C25.2558 55.9307 23.8689 55.5816 22.46 55.58Z" fill="#333333"/>
<path d="M50.02 55.58C47.7584 55.616 45.5995 56.5306 44 58.13C42.4006 59.7294 41.486 61.8883 41.45 64.15C41.4473 65.2757 41.6673 66.3908 42.0972 67.4312C42.5271 68.4716 43.1584 69.4167 43.9549 70.2123C44.7513 71.0078 45.6972 71.638 46.7381 72.0667C47.779 72.4953 48.8943 72.7139 50.02 72.71C52.28 72.674 54.4375 71.7609 56.0366 70.1636C57.6358 68.5663 58.5513 66.4099 58.59 64.15C58.5926 63.0238 58.3728 61.9082 57.943 60.8673C57.5133 59.8263 56.8822 58.8805 56.0858 58.0842C55.2895 57.2879 54.3437 56.6567 53.3028 56.227C52.2618 55.7972 51.1462 55.5773 50.02 55.58Z" fill="#333333"/>
<path d="M77.8099 55.58C75.5483 55.616 73.3894 56.5305 71.7899 58.13C70.1905 59.7294 69.2761 61.8883 69.24 64.15C69.24 65.8449 69.7426 67.5019 70.6843 68.9112C71.626 70.3205 72.9644 71.419 74.5304 72.0676C76.0964 72.7163 77.8195 72.886 79.4819 72.5553C81.1444 72.2246 82.6713 71.4084 83.8699 70.2099C85.0684 69.0113 85.8847 67.4843 86.2153 65.8219C86.546 64.1595 86.3763 62.4363 85.7277 60.8704C85.079 59.3044 83.9805 57.9659 82.5712 57.0243C81.1618 56.0826 79.5049 55.58 77.8099 55.58Z" fill="#333333"/>
<path d="M22.46 82.9C20.1983 82.9361 18.0394 83.8506 16.4399 85.45C14.8405 87.0494 13.9261 89.2084 13.89 91.47C13.89 93.165 14.3927 94.8219 15.3344 96.2313C16.276 97.6406 17.6145 98.739 19.1804 99.3877C20.7464 100.036 22.4695 100.206 24.132 99.8754C25.7944 99.5447 27.3214 98.7285 28.5199 97.5299C29.7184 96.3314 30.5347 94.8044 30.8654 93.142C31.196 91.4796 31.0263 89.7564 30.3777 88.1904C29.729 86.6245 28.6305 85.286 27.2212 84.3443C25.8119 83.4026 24.1549 82.9 22.46 82.9Z" fill="#333333"/>
<path d="M50.0201 82.9C47.7584 82.9361 45.5995 83.8506 44.0001 85.45C42.4006 87.0494 41.4861 89.2084 41.45 91.47C41.446 92.5966 41.665 93.7128 42.0943 94.7543C42.5236 95.7959 43.1548 96.7422 43.9513 97.5388C44.7479 98.3354 45.6942 98.9665 46.7358 99.3958C47.7773 99.825 48.8935 100.044 50.0201 100.04C52.2801 100.009 54.4396 99.1013 56.0425 97.5077C57.6454 95.9141 58.5661 93.7599 58.61 91.5C58.61 89.2271 57.7071 87.0473 56.0999 85.4401C54.4927 83.8329 52.313 82.93 50.0401 82.93L50.0201 82.9Z" fill="#333333"/>
<path d="M22.46 110C20.1983 110.036 18.0394 110.951 16.4399 112.55C14.8405 114.149 13.9261 116.308 13.89 118.57C13.89 120.265 14.3927 121.922 15.3344 123.331C16.276 124.741 17.6145 125.839 19.1804 126.488C20.7464 127.136 22.4695 127.306 24.132 126.975C25.7944 126.645 27.3214 125.828 28.5199 124.63C29.7184 123.431 30.5347 121.904 30.8654 120.242C31.196 118.579 31.0263 116.856 30.3777 115.29C29.729 113.724 28.6305 112.386 27.2212 111.444C25.8119 110.503 24.1549 110 22.46 110Z" fill="#333333"/>
<path d="M50.02 110C47.7584 110.036 45.5995 110.951 44 112.55C42.4006 114.149 41.486 116.308 41.45 118.57C41.4473 119.696 41.6672 120.812 42.0969 121.853C42.5267 122.894 43.1579 123.839 43.9542 124.636C44.7506 125.432 45.6964 126.063 46.7373 126.493C47.7783 126.923 48.8939 127.143 50.02 127.14C52.2817 127.104 54.4406 126.189 56.0401 124.59C57.6395 122.991 58.5539 120.832 58.59 118.57C58.5926 117.444 58.3728 116.328 57.943 115.287C57.5133 114.246 56.8822 113.301 56.0858 112.504C55.2895 111.708 54.3437 111.077 53.3028 110.647C52.2618 110.217 51.1462 109.997 50.02 110Z" fill="#333333"/>
<path d="M77.81 82.9C76.6838 82.8973 75.5682 83.1172 74.5272 83.547C73.4863 83.9767 72.5405 84.6079 71.7442 85.4042C70.9478 86.2005 70.3167 87.1463 69.887 88.1873C69.4572 89.2282 69.2374 90.3438 69.24 91.47V118.57C69.2374 119.696 69.4574 120.811 69.8872 121.851C70.3171 122.892 70.9483 123.837 71.7448 124.632C72.5412 125.428 73.4872 126.058 74.5281 126.487C75.569 126.915 76.6843 127.134 77.81 127.13C80.0699 127.094 82.2274 126.181 83.8266 124.584C85.4257 122.986 86.3414 120.83 86.38 118.57V91.5C86.344 89.2383 85.4294 87.0794 83.83 85.48C82.2305 83.8805 80.0716 82.9661 77.81 82.93V82.9Z" fill="#333333"/>
</g>
<defs>
<clipPath id="clip0_984_23">
<rect width="99.35" height="142.65" fill="white"/>
</clipPath>
</defs>
</svg>
