<svg width="131" height="131" viewBox="0 0 131 131" fill="none" xmlns="http://www.w3.org/2000/svg">
<g clip-path="url(#clip0_984_10)">
<path d="M65.4948 131C52.5387 131 39.8734 127.158 29.1009 119.96C18.3284 112.761 9.93245 102.53 4.97483 90.5602C0.0171996 78.5901 -1.27934 65.4186 1.24904 52.7116C3.77741 40.0045 10.0171 28.3327 19.1792 19.172C28.3413 10.0114 40.0143 3.77341 52.7218 1.24705C65.4292 -1.27931 78.6003 0.0193995 90.5697 4.97892C102.539 9.93845 112.769 18.336 119.965 29.1097C127.162 39.8833 131.002 52.5491 131 65.5052C130.981 82.8714 124.073 99.5207 111.792 111.799C99.5113 124.078 82.861 130.984 65.4948 131ZM65.4948 5.54357C53.6355 5.54357 42.0424 9.06026 32.1818 15.6489C22.3212 22.2376 14.6358 31.6023 10.0975 42.5589C5.55913 53.5155 4.3717 65.5718 6.68534 77.2032C8.99897 88.8346 14.7097 99.5187 23.0955 107.905C31.4813 116.29 42.1655 122.001 53.7969 124.315C65.4283 126.628 77.4846 125.441 88.4411 120.903C99.3977 116.364 108.762 108.679 115.351 98.8181C121.94 88.9575 125.456 77.3645 125.456 65.5052C125.44 49.6075 119.117 34.3656 107.876 23.1241C96.6345 11.8827 81.3926 5.56006 65.4948 5.54357Z" fill="#2F2B46"/>
<path d="M96.2749 86.5063C95.4906 85.852 94.4816 85.5303 93.4633 85.6098C92.445 85.6893 91.4981 86.1638 90.8248 86.9319C86.6195 91.7283 81.0959 95.1812 74.9421 96.8606C68.7882 98.5399 62.2763 98.3714 56.2176 96.376C50.1588 94.3806 44.8211 90.6466 40.8695 85.6391C36.9179 80.6317 34.5271 74.5721 33.9949 68.2155C33.4627 61.8589 34.8126 55.4862 37.8765 49.8914C40.9405 44.2965 45.583 39.727 51.2256 36.7519C56.8682 33.7769 63.2615 32.5279 69.6089 33.1606C75.9563 33.7933 81.9772 36.2797 86.9215 40.31C87.3208 40.6562 87.7856 40.9188 88.2882 41.0824C88.7908 41.246 89.3209 41.3072 89.8475 41.2623C90.3741 41.2175 90.8864 41.0676 91.3541 40.8215C91.8218 40.5754 92.2354 40.238 92.5705 39.8294C92.9057 39.4207 93.1555 38.949 93.3053 38.4421C93.4551 37.9353 93.5017 37.4036 93.4425 36.8784C93.3833 36.3532 93.2196 35.8452 92.9607 35.3844C92.7019 34.9236 92.3534 34.5193 91.9357 34.1955C85.7926 29.1822 78.3105 26.0866 70.4211 25.2943C62.5317 24.502 54.5835 26.0481 47.5663 29.7398C40.5491 33.4316 34.7729 39.1061 30.9569 46.0566C27.141 53.0071 25.4541 60.9265 26.106 68.8288C26.7579 76.731 29.7199 84.2669 34.6233 90.4981C39.5267 96.7293 46.1547 101.38 53.6821 103.872C61.2095 106.364 69.3036 106.587 76.9565 104.512C84.6094 102.438 91.483 98.1578 96.7214 92.2055C97.0775 91.8027 97.3485 91.332 97.518 90.8218C97.6874 90.3115 97.7519 89.7723 97.7075 89.2365C97.6685 88.7076 97.5212 88.1923 97.2748 87.7226C97.0283 87.253 96.688 86.839 96.2749 86.5063Z" fill="#2F2B46"/>
</g>
<defs>
<clipPath id="clip0_984_10">
<rect width="131" height="131" fill="white"/>
</clipPath>
</defs>
</svg>
