<svg width="118" height="147" viewBox="0 0 118 147" fill="none" xmlns="http://www.w3.org/2000/svg">
<g clip-path="url(#clip0_984_13)">
<path d="M116.74 51.38C116.282 50.9202 115.659 50.6613 115.01 50.66H52.9301C51.694 47.7058 49.7721 45.0884 47.3237 43.0243C44.8753 40.9602 41.9707 39.5087 38.85 38.79H38.71C40.8574 37.4813 42.5182 35.5065 43.4391 33.1664C44.36 30.8264 44.4906 28.2494 43.811 25.8282C43.1314 23.407 41.6788 21.2744 39.6747 19.7553C37.6706 18.2363 35.2247 17.4141 32.71 17.4141C30.1952 17.4141 27.7494 18.2363 25.7453 19.7553C23.7412 21.2744 22.2886 23.407 21.609 25.8282C20.9294 28.2494 21.06 30.8264 21.981 33.1664C22.9019 35.5065 24.5625 37.4813 26.71 38.79H26.5601C22.2038 39.8034 18.3041 42.2271 15.4669 45.6845C12.6296 49.142 11.0137 53.4397 10.87 57.91V69.53H38V95.53C37.9935 103.077 39.7001 110.528 42.9913 117.32C46.2825 124.112 51.0724 130.068 57 134.74C62.4154 139.467 68.5577 143.289 75.1901 146.06C75.8852 146.611 76.7532 146.898 77.64 146.87C78.1389 146.86 78.6339 146.779 79.11 146.63C79.4211 146.629 79.7294 146.571 80.02 146.46C86.648 143.649 92.8246 139.875 98.35 135.26C104.234 130.537 108.998 124.568 112.299 117.783C115.6 110.997 117.356 103.565 117.44 96.02V53.11C117.444 52.4636 117.192 51.8417 116.74 51.38ZM112.56 65.38L88.05 77.66C87.5621 77.908 87.1722 78.3136 86.9435 78.8109C86.7148 79.3082 86.6608 79.8681 86.79 80.4C86.9173 80.9344 87.2198 81.4109 87.6493 81.7534C88.0788 82.0959 88.6107 82.2848 89.16 82.29C89.5438 82.2957 89.9225 82.2027 90.26 82.02L112.32 70.82V82.02L88.05 94.59C87.56 94.8413 87.1688 95.2505 86.9398 95.7514C86.7108 96.2523 86.6574 96.8158 86.788 97.3509C86.9186 97.886 87.2255 98.3614 87.6595 98.7006C88.0936 99.0397 88.6293 99.2227 89.1801 99.22C89.5728 99.2211 89.9602 99.1285 90.3101 98.95L112.31 87.56V96.04C112.28 102.862 110.739 109.593 107.8 115.75C104.861 121.907 100.596 127.336 95.3101 131.65V131.58C90.2869 135.769 84.6902 139.217 78.6901 141.82C78.4233 141.85 78.1591 141.9 77.9 141.97L77.3201 141.67C71.0476 139.108 65.2475 135.515 60.16 131.04C54.7683 126.829 50.4077 121.443 47.4099 115.294C44.4121 109.144 42.8561 102.392 42.86 95.55V55.55H112.52L112.56 65.38Z" fill="#333333"/>
<path d="M100.66 45.78C100.733 46.32 100.999 46.8154 101.409 47.1742C101.819 47.5329 102.345 47.7306 102.89 47.7306C103.435 47.7306 103.961 47.5329 104.371 47.1742C104.782 46.8154 105.048 46.32 105.12 45.78V9.46997C105.096 8.1898 104.798 6.92973 104.244 5.77535C103.69 4.62098 102.894 3.59936 101.91 2.77996C99.7521 0.966523 97.0188 -0.0190307 94.2001 -3.56422e-05H10.91C8.09193 -0.0155395 5.35976 0.969593 3.20001 2.77996C2.21899 3.60117 1.42565 4.62339 0.873596 5.77752C0.321545 6.93165 0.0236385 8.19082 0 9.46997V104.38C0.0223346 105.659 0.319683 106.919 0.871826 108.073C1.42397 109.228 2.21799 110.25 3.20001 111.07C5.3571 112.885 8.09103 113.871 10.91 113.85C11.2058 113.927 11.5154 113.936 11.815 113.875C12.1146 113.814 12.3962 113.685 12.6382 113.498C12.8802 113.311 13.0761 113.071 13.2109 112.797C13.3457 112.522 13.4158 112.221 13.4158 111.915C13.4158 111.609 13.3457 111.308 13.2109 111.033C13.0761 110.759 12.8802 110.519 12.6382 110.332C12.3962 110.145 12.1146 110.016 11.815 109.955C11.5154 109.894 11.2058 109.903 10.91 109.98C9.24326 109.994 7.6263 109.412 6.35004 108.34C5.76289 107.851 5.28958 107.24 4.96313 106.549C4.63669 105.858 4.46498 105.104 4.46002 104.34V9.46997C4.46565 8.70598 4.63766 7.95237 4.96405 7.26159C5.29044 6.57081 5.76341 5.95943 6.35004 5.46997C7.6263 4.39782 9.24326 3.8163 10.91 3.82998H94.2001C95.8703 3.81391 97.4911 4.39558 98.77 5.46997C99.3566 5.95943 99.8296 6.57081 100.156 7.26159C100.482 7.95237 100.654 8.70598 100.66 9.46997V45.78Z" fill="#333333"/>
</g>
<defs>
<clipPath id="clip0_984_13">
<rect width="117.46" height="146.85" fill="white"/>
</clipPath>
</defs>
</svg>
