<svg width="140" height="140" viewBox="0 0 140 140" fill="none" xmlns="http://www.w3.org/2000/svg">
<g clip-path="url(#clip0_984_6)">
<path d="M67.24 119.25C67.324 118.851 67.3116 118.438 67.2037 118.045C67.0959 117.652 66.8958 117.29 66.62 116.99C66.3464 116.69 66.0046 116.459 65.6235 116.318C65.2425 116.177 64.8331 116.13 64.4299 116.18H10.99C10.1807 116.193 9.4084 116.521 8.83704 117.094C8.26567 117.667 7.94024 118.441 7.92993 119.25V130.25H67.24V119.25Z" fill="#2F2B46"/>
<path d="M72.86 134.84H2.60999C1.93103 134.84 1.2799 135.11 0.799805 135.59C0.319712 136.07 0.0499268 136.721 0.0499268 137.4C0.0499268 138.079 0.319712 138.73 0.799805 139.21C1.2799 139.69 1.93103 139.96 2.60999 139.96H72.91C73.589 139.96 74.2401 139.69 74.7202 139.21C75.2003 138.73 75.47 138.079 75.47 137.4C75.47 136.721 75.2003 136.07 74.7202 135.59C74.2401 135.11 73.589 134.84 72.91 134.84H72.86Z" fill="#2F2B46"/>
<path d="M134.45 108.67L75.78 55.2601C75.9039 54.2932 75.8043 53.3107 75.4887 52.3884C75.1732 51.4661 74.6501 50.6284 73.9599 49.94L71.4 47.3801C73.7634 43.7944 75.917 40.0749 77.8499 36.24C78.8976 36.4969 79.9946 36.4728 81.03 36.1701C82.0672 35.8717 83.0061 35.3021 83.75 34.52L84.52 33.7601C85.7263 32.5268 86.4017 30.8702 86.4017 29.145C86.4017 27.4199 85.7263 25.7633 84.52 24.53L61.92 1.78004C60.6761 0.59044 59.0143 -0.0626037 57.2933 -0.0382848C55.5723 -0.0139659 53.9298 0.685772 52.7199 1.91005L51.7199 2.83003C50.92 3.72048 50.3713 4.80765 50.13 5.98006C49.8887 7.15674 49.9717 8.37685 50.37 9.51005C33.01 18.5601 24.9599 26.61 15.9299 44.05C14.7851 43.6384 13.5466 43.562 12.3599 43.83C11.1757 44.0978 10.0909 44.694 9.22994 45.55L8.33993 46.47C7.18067 47.7107 6.54583 49.3514 6.5682 51.0492C6.59056 52.747 7.26838 54.3704 8.45992 55.58L31.0899 78.2001C32.3575 79.316 33.9814 79.9435 35.67 79.97C36.5121 79.971 37.3458 79.8033 38.122 79.477C38.8983 79.1507 39.6014 78.6723 40.1899 78.0701L40.9599 77.31L41.1099 77.1301C41.7472 76.3404 42.2052 75.4216 42.4521 74.4374C42.699 73.4531 42.729 72.427 42.54 71.43C46.4899 69.4223 50.3227 67.192 54.02 64.75L56.5799 67.31C57.766 68.4969 59.372 69.1688 61.0499 69.18H61.41L114.79 128.36C115.784 129.657 117.035 130.735 118.465 131.527C119.895 132.318 121.473 132.806 123.1 132.96H123.31C127.22 132.96 130.31 130.23 133.31 127.19C136.31 124.15 139.16 121 139.09 116.96C138.928 115.329 138.434 113.748 137.637 112.316C136.841 110.883 135.76 109.629 134.46 108.63L134.45 108.67ZM55.5499 6.40004L56.3199 5.61003C56.5579 5.34959 56.8878 5.19184 57.24 5.17006C57.6394 5.19362 58.0225 5.33641 58.3399 5.58003L80.6799 27.93C80.982 28.1944 81.1682 28.567 81.1981 28.9673C81.228 29.3676 81.0993 29.7637 80.8399 30.0701L80.0699 30.84C79.797 31.0902 79.4402 31.229 79.0699 31.229C78.6997 31.229 78.3429 31.0902 78.0699 30.84L55.5699 8.34004C55.326 8.06404 55.1914 7.70839 55.1914 7.34004C55.1914 6.97169 55.326 6.61604 55.5699 6.34004L55.5499 6.40004ZM53.66 13.74L73.5 33.58C67.26 45.75 61.4999 53.1901 52.5899 59.6301H52.4299C48.4503 62.4175 44.2725 64.9108 39.9299 67.09L20.02 47.18C28.84 30.07 36.53 22.51 53.66 13.69V13.74ZM37.1999 73.78L36.53 74.44C36.257 74.6902 35.9002 74.829 35.53 74.829C35.1597 74.829 34.8029 74.6902 34.53 74.44L12.03 51.9501C11.788 51.6731 11.6546 51.3178 11.6546 50.9501C11.6546 50.5823 11.788 50.227 12.03 49.9501L12.7999 49.18C13.0409 48.928 13.3714 48.7808 13.7199 48.77C14.1205 48.7878 14.5054 48.9313 14.8199 49.18L37.17 71.61C37.3687 71.9371 37.4736 72.3124 37.4736 72.6951C37.4736 73.0777 37.3687 73.453 37.17 73.78H37.1999ZM68.3099 51.4801L70.3099 53.53C70.5091 53.7095 70.6464 53.9474 70.7021 54.2097C70.7578 54.472 70.729 54.7451 70.62 54.99C70.5503 55.09 70.4994 55.2018 70.4699 55.3201C70.428 55.3951 70.3739 55.4626 70.3099 55.52L62.3099 63.58C62.0414 63.8778 61.6668 64.0583 61.2666 64.0826C60.8663 64.1069 60.4726 63.9731 60.17 63.71L58.17 61.71C61.9657 58.7288 65.3811 55.2932 68.3399 51.4801H68.3099ZM129.67 123.53C127.39 125.78 125.22 127.85 123.28 127.85C121.414 127.513 119.749 126.471 118.63 124.94L66.1899 66.94L73.27 59.8801L130.95 112.55C132.49 113.679 133.541 115.353 133.89 117.23C133.97 119.1 131.89 121.3 129.64 123.57L129.67 123.53Z" fill="#2F2B46"/>
</g>
<defs>
<clipPath id="clip0_984_6">
<rect width="139.08" height="139.96" fill="white"/>
</clipPath>
</defs>
</svg>
