<svg width="46" height="47" viewBox="0 0 46 47" fill="none" xmlns="http://www.w3.org/2000/svg">
<path d="M23 0.481934C10.2972 0.481934 0 10.887 0 23.7228C0 36.5587 10.2972 46.9637 23 46.9637C35.7028 46.9637 46 36.5587 46 23.7228C46 10.887 35.7028 0.481934 23 0.481934ZM34.2138 15.2631C34.0843 17.3979 30.1658 33.3291 30.1658 33.3291C30.1658 33.3291 29.9307 34.2621 29.0924 34.2931C28.7858 34.3035 28.4144 34.2415 27.9714 33.8559C27.0855 33.088 25.0376 31.6178 23.1329 30.2888C22.557 30.7777 21.4087 31.7831 20.2196 32.9813C18.5363 34.6822 18.751 32.9813 18.751 32.9813L19.2689 27.4276L19.2825 27.4345C19.3064 27.3794 19.3439 27.3312 19.3439 27.3312C19.3439 27.3312 29.2628 18.4205 29.5252 17.4874C29.5456 17.4151 29.4673 17.3806 29.365 17.4116C28.7074 17.6561 17.2858 24.9451 16.025 25.7474C15.9501 25.7956 15.7456 25.7646 15.7456 25.7646L10.2052 23.9397C10.2052 23.9397 9.54415 23.6677 9.75541 23.0514C9.7997 22.924 9.8883 22.8173 10.1507 22.6314C11.3773 21.7671 32.8747 13.9582 32.8747 13.9582C32.8747 13.9582 33.4812 13.7516 33.839 13.8893C34.0025 13.9513 34.1081 14.0236 34.1967 14.2819C34.2274 14.3748 34.2479 14.578 34.2444 14.7777C34.2444 14.9223 34.224 15.0531 34.2138 15.2631Z" fill="white"/>
</svg>
