<svg width="66" height="53" viewBox="0 0 66 53" fill="none" xmlns="http://www.w3.org/2000/svg">
<path d="M65.2935 6.66765C63.0644 7.57324 60.6881 8.18471 58.2035 8.47884C60.8352 6.93081 62.8863 4.52363 63.9622 1.64431C64.0319 1.46628 63.8306 1.296 63.6603 1.39662C61.1757 2.78211 58.459 3.79606 55.5642 4.35335C53.1028 1.76815 49.5965 0.158203 45.7033 0.158203C38.2495 0.158203 32.1967 6.11036 32.1967 13.4557C32.1967 14.5007 32.3206 15.5146 32.545 16.4899C21.3606 15.9326 11.43 10.677 4.77347 2.68148C4.74251 2.64278 4.67284 2.64278 4.64962 2.68922C3.52731 4.632 2.87713 6.88437 2.87713 9.28381C2.87713 13.7886 5.16048 17.7825 8.65128 20.1896C8.72094 20.2361 8.68223 20.3444 8.59709 20.3367C6.53822 20.2283 4.5877 19.6633 2.87713 18.7422C2.83069 18.719 2.76876 18.75 2.7765 18.8042C2.80746 19.3924 3.00099 21.9931 3.68986 23.6727C5.39268 27.8214 9.06149 30.9949 13.6127 31.8927C12.4749 32.1868 11.2752 32.3649 10.0445 32.3649C9.22404 32.3649 8.41906 32.2875 7.62183 32.1404C7.56765 32.1327 7.52122 32.1868 7.5367 32.241C9.27823 37.3882 14.1235 41.1499 19.8899 41.3434C19.9673 41.3434 19.9983 41.444 19.9364 41.4905C15.3387 44.9813 9.59556 47.0479 3.34154 47.0479C2.25018 47.0479 1.18979 46.986 0.129395 46.8621C6.10477 50.6316 13.2102 52.8298 20.8342 52.8298C31.3453 52.8298 39.8362 49.2074 46.1367 43.6964C52.4991 38.1313 56.6246 30.6543 58.3429 23.0303C58.9466 20.3522 59.2639 17.6431 59.2639 15.0038C59.2639 14.431 59.2485 13.8582 59.2175 13.2855C61.6634 11.5439 63.8074 9.41539 65.5412 6.99273C65.665 6.80697 65.487 6.58251 65.2935 6.66765Z" fill="white"/>
</svg>
